<?xml version="1.0" encoding="UTF-8"?>
<svg version="1.1" xmlns="http://www.w3.org/2000/svg" width="192" height="192">
<path d="M0 0 C12.91274752 12.02613281 19.94571351 29.17481028 20.75 46.6875 C20.2404684 58.70473262 15.3654262 70.40098893 10.6875 81.3125 C10.28180786 82.27039932 10.28180786 82.27039932 9.86791992 83.24765015 C3.45220247 98.38597682 -3.61416975 113.22646298 -10.71875 128.05078125 C-11.06682709 128.78079849 -11.41490417 129.51081573 -11.77352905 130.26295471 C-14.04595687 135.00321714 -16.45666156 139.64251095 -19.08789062 144.19604492 C-19.92759659 147.07244812 -18.88640481 148.57802431 -17.6875 151.25 C-17.98009485 153.25636471 -18.31383887 155.25714063 -18.6875 157.25 C-18.501875 158.095625 -18.31625 158.94125 -18.125 159.8125 C-17.57203109 162.89332678 -18.54229332 164.38698329 -19.6875 167.25 C-19.48125 168.095625 -19.275 168.94125 -19.0625 169.8125 C-18.93875 170.616875 -18.815 171.42125 -18.6875 172.25 C-20.88784214 175.07901133 -22.26869536 176.11039845 -25.6875 177.25 C-35.73167975 178.35196936 -48.4106975 176.339034 -56.6875 170.25 C-57.625 167.1875 -57.625 167.1875 -57.6875 164.25 C-57.0275 163.59 -56.3675 162.93 -55.6875 162.25 C-56.3475 161.26 -57.0075 160.27 -57.6875 159.25 C-57.3125 156.75 -57.3125 156.75 -56.6875 154.25 C-56.6875 153.26 -56.6875 152.27 -56.6875 151.25 C-56.39488281 150.2290625 -56.10226563 149.208125 -55.80078125 148.15625 C-55.63210143 142.33970436 -58.51569162 139.31035143 -61.875 134.75 C-81.56087601 106.55527425 -103.37271604 64.64946007 -98.2265625 29.0625 C-94.85967223 13.85207808 -86.24123522 3.22210006 -73.25 -5.125 C-49.48767452 -18.909928 -21.32501175 -17.83677206 0 0 Z M-37.6875 49.25 C-41.17523071 49.59227419 -44.64252596 49.69223559 -48.14453125 49.80859375 C-52.05669568 50.29599682 -54.41590627 51.05182504 -57.6875 53.25 C-65.46950077 64.82407742 -59.78549027 84.03623547 -57.3203125 96.65234375 C-54.13580528 111.9840436 -50.51350928 127.70307 -44.6875 142.25 C-43.3675 142.25 -42.0475 142.25 -40.6875 142.25 C-41.30174956 135.46092593 -43.00453491 129.27267482 -44.9375 122.75 C-58.41721558 75.90599228 -58.41721558 75.90599228 -54.6875 58.25 C-52.19244038 55.75494038 -51.01421112 55.89051624 -47.5625 55.625 C-46.65242188 55.55023438 -45.74234375 55.47546875 -44.8046875 55.3984375 C-44.10601562 55.34945312 -43.40734375 55.30046875 -42.6875 55.25 C-43.19410156 56.15878906 -43.19410156 56.15878906 -43.7109375 57.0859375 C-48.84404399 66.72905664 -50.80067774 75.39440144 -48.6875 86.25 C-47.31690031 89.64670357 -46.2544039 91.6830961 -43.6875 94.25 C-40.54738511 94.32136625 -38.51422211 93.93926711 -36.06640625 91.8984375 C-30.21052832 85.50224165 -27.67320713 77.88289499 -27.6875 69.25 C-28.37113517 63.14410782 -30.04548076 57.77422204 -32.6875 52.25 C-26.0625 48.25 -26.0625 48.25 -22.6875 48.25 C-15.72662493 64.3677405 -20.13324245 82.14651921 -24.6875 98.25 C-25.00879883 99.3937207 -25.33009766 100.53744141 -25.66113281 101.71582031 C-27.35331227 107.7159467 -29.07314025 113.70708233 -30.8203125 119.69140625 C-32.60071568 125.84047602 -34.18436422 132.0278647 -35.6875 138.25 C-34.3675 138.91 -33.0475 139.57 -31.6875 140.25 C-29.04946283 134.52596637 -27.28638977 128.74346297 -25.62109375 122.671875 C-25.34153336 121.66465393 -25.06197296 120.65743286 -24.77394104 119.61968994 C-24.18581648 117.4956654 -23.60016434 115.37095488 -23.0168457 113.24560547 C-22.13114166 110.02235073 -21.23508985 106.80210267 -20.33789062 103.58203125 C-19.76499835 101.50798549 -19.19271311 99.43377194 -18.62109375 97.359375 C-18.35646835 96.41004089 -18.09184296 95.46070679 -17.81919861 94.48260498 C-13.72771463 79.49215137 -10.33058742 62.14604889 -16.6875 47.25 C-19.20331819 44.21242074 -20.02975953 43.34928158 -24 42.75 C-29.56780736 43.50495693 -33.03715095 46.1497673 -37.6875 49.25 Z M-51.6875 148.25 C-51.3575 149.24 -51.0275 150.23 -50.6875 151.25 C-47.11364127 152.44128624 -43.72601494 152.52119043 -40 152.6875 C-34.32366136 152.98266451 -29.14222194 153.54539939 -23.6875 155.25 C-23.3575 154.26 -23.0275 153.27 -22.6875 152.25 C-31.71836494 146.65086374 -41.30904003 145.8852876 -51.6875 148.25 Z M-52.6875 158.25 C-48.28418029 160.32112666 -44.08951378 160.86556322 -39.3125 161.375 C-38.58289063 161.46136719 -37.85328125 161.54773438 -37.1015625 161.63671875 C-32.6010758 162.1430235 -28.21548141 162.33363026 -23.6875 162.25 C-23.3575 161.59 -23.0275 160.93 -22.6875 160.25 C-29.18786208 157.1650824 -35.05248337 155.86203903 -42.1875 155.875 C-42.88166016 155.87371094 -43.57582031 155.87242187 -44.29101562 155.87109375 C-47.94447524 155.94997119 -49.57434842 156.17456561 -52.6875 158.25 Z M-52.6875 167.25 C-51.12729133 167.90134925 -49.56421421 168.54582964 -48 169.1875 C-47.12988281 169.54714844 -46.25976562 169.90679687 -45.36328125 170.27734375 C-40.70382222 171.97107411 -36.4461209 172.40677875 -31.5 172.4375 C-29.93185547 172.45876953 -29.93185547 172.45876953 -28.33203125 172.48046875 C-25.53071779 172.52191489 -25.53071779 172.52191489 -23.6875 170.25 C-24.739375 169.610625 -25.79125 168.97125 -26.875 168.3125 C-27.46667969 167.95285156 -28.05835937 167.59320313 -28.66796875 167.22265625 C-33.03084493 165.12138707 -37.47433051 165.090169 -42.25 165.0625 C-43.92255859 165.04123047 -43.92255859 165.04123047 -45.62890625 165.01953125 C-48.57241377 165.24132811 -50.2081192 165.7162999 -52.6875 167.25 Z " fill="#6AAEBA" transform="translate(134.6875,14.75)"/>
<path d="M0 0 C3.48677555 2.69432656 4.11783965 5.7927737 5 10 C5.91558818 18.79280369 3.5034928 26.12063399 -2 33 C-2.99 33 -3.98 33 -5 33 C-8.22120015 23.73904958 -7.72667416 15.07499733 -4 6 C-2.79416949 3.83036948 -1.51093902 1.97985113 0 0 Z " fill="#6AAFBA" transform="translate(97,71)"/>
<path d="M0 0 C-2.01414307 2.01414307 -3.231646 2.64425791 -5.81640625 3.69921875 C-14.38946067 7.29041235 -22.08855908 10.63245366 -29 17 C-29.90878906 17.804375 -30.81757812 18.60875 -31.75390625 19.4375 C-34.18875495 21.60482013 -36.60192461 23.79216859 -39 26 C-39.66 25.67 -40.32 25.34 -41 25 C-31.95401838 12.25580825 -16.75145021 -0.99893969 0 0 Z " fill="#D2ECF0" transform="translate(87,6)"/>
<path d="M0 0 C0 3.58963167 -0.95909409 4.98160988 -2.75 8.0625 C-5.65568854 13.22663841 -7.951983 18.44625979 -10 24 C-10.33 24 -10.66 24 -11 24 C-10.71591136 15.33529636 -7.82735128 8.04489167 -1.80078125 1.67578125 C-1.20652344 1.12277344 -0.61226562 0.56976563 0 0 Z " fill="#D7EFF2" transform="translate(68,45)"/>
<path d="M0 0 C0.99 0.33 1.98 0.66 3 1 C-0.11016455 4.28788824 -3.01618925 6.83735988 -7 9 C-5.44499019 5.18315774 -2.96404505 2.80804268 0 0 Z " fill="#DCF2F5" transform="translate(66,12)"/>
<path d="M0 0 C2.49361571 1.20381448 4.68143083 2.45428722 7 4 C7.1875 6.625 7.1875 6.625 7 9 C4.03595495 6.19195732 1.55500981 3.81684226 0 0 Z " fill="#D1EBEF" transform="translate(76,146)"/>
<path d="M0 0 C0 4.24645065 -1.81750806 6.38524772 -4 10 C-4.66 9.01 -5.32 8.02 -6 7 C-4.02 4.69 -2.04 2.38 0 0 Z " fill="#C4E4E8" transform="translate(68,45)"/>
<path d="M0 0 C4.875 4.625 4.875 4.625 6 8 C5.01 8 4.02 8 3 8 C0 2.25 0 2.25 0 0 Z " fill="#D5EEF1" transform="translate(135,23)"/>
</svg>
