<?xml version="1.0" encoding="UTF-8"?>
<svg version="1.1" xmlns="http://www.w3.org/2000/svg" width="116" height="146">
<path d="M0 0 C0.97422913 -0.00428513 1.94845825 -0.00857025 2.95220947 -0.01298523 C4.99596381 -0.01869181 7.03973845 -0.01925613 9.08349609 -0.01489258 C12.20835653 -0.01171343 15.3322862 -0.03530384 18.45703125 -0.06054688 C20.45051965 -0.06281834 22.44401057 -0.06352407 24.4375 -0.0625 C25.36778015 -0.07170975 26.2980603 -0.08091949 27.25653076 -0.09040833 C28.12803772 -0.08417953 28.99954468 -0.07795074 29.89746094 -0.0715332 C31.03921783 -0.07247734 31.03921783 -0.07247734 32.20404053 -0.07344055 C41.90131734 1.54007483 50.54746329 13.05741952 57.4655962 19.64643669 C60.10713233 22.15997968 62.76784756 24.63863507 65.50170898 27.05175781 C84.74302923 44.08952888 84.74302923 44.08952888 86.01318359 56.13769531 C86.35040267 63.07361404 86.69041668 70.65167287 84.453125 77.30078125 C81.92289833 79.74474603 80.35694738 81.12442566 76.890625 81.80078125 C73.68256743 81.14271816 72.50693751 79.79469644 70.453125 77.30078125 C68.85900216 74.11253557 69.35137765 70.67181463 69.390625 67.17578125 C69.39513672 66.42167969 69.39964844 65.66757813 69.40429688 64.890625 C69.41609001 63.02730998 69.43402558 61.1640357 69.453125 59.30078125 C68.34239624 59.33220215 68.34239624 59.33220215 67.20922852 59.36425781 C63.81150218 59.44808024 60.41399428 59.49965049 57.015625 59.55078125 C55.26862305 59.60105469 55.26862305 59.60105469 53.48632812 59.65234375 C45.54832319 59.74178606 38.60224805 59.17596168 32.57836914 53.54980469 C27.86202935 48.45990073 26.19173335 43.87759991 26.2578125 36.90625 C26.26425781 35.70419922 26.27070312 34.50214844 26.27734375 33.26367188 C26.29410156 32.01779297 26.31085937 30.77191406 26.328125 29.48828125 C26.33714844 28.22306641 26.34617188 26.95785156 26.35546875 25.65429688 C26.37900106 22.53626561 26.41187955 19.41862028 26.453125 16.30078125 C20.79283376 16.39417036 15.13297769 16.50023073 9.47314453 16.61816406 C7.54677886 16.65650293 5.6203404 16.69134707 3.69384766 16.72265625 C0.92844582 16.7682007 -1.83645269 16.82621162 -4.6015625 16.88671875 C-5.8985054 16.90404556 -5.8985054 16.90404556 -7.22164917 16.92172241 C-11.86470348 16.82740283 -11.86470348 16.82740283 -15.546875 19.30078125 C-15.85286227 21.29754289 -15.85286227 21.29754289 -15.80757141 23.62120056 C-15.81465622 24.52834305 -15.82174103 25.43548553 -15.82904053 26.37011719 C-15.8253244 27.8670813 -15.8253244 27.8670813 -15.8215332 29.39428711 C-15.82664413 30.4431459 -15.83175507 31.4920047 -15.83702087 32.57264709 C-15.8509668 36.05369713 -15.84995634 39.53455029 -15.84765625 43.015625 C-15.85154043 45.42696711 -15.85587452 47.83830853 -15.86064148 50.24964905 C-15.86811447 55.30960302 -15.8678046 60.36948724 -15.86254883 65.42944336 C-15.85675285 71.92429203 -15.87368333 78.41885566 -15.8968935 84.91365719 C-15.9116018 89.89524515 -15.9125065 94.876764 -15.90938377 99.85836983 C-15.90989845 102.25343961 -15.91516343 104.64851311 -15.92519569 107.04356194 C-15.93748638 110.3885251 -15.9308125 113.73292715 -15.91918945 117.07788086 C-15.92683319 118.0738327 -15.93447693 119.06978455 -15.94235229 120.09591675 C-15.93533798 121.00587906 -15.92832367 121.91584137 -15.9210968 122.8533783 C-15.92126454 123.64444442 -15.92143229 124.43551054 -15.92160511 125.25054836 C-15.44810733 127.84116145 -14.62735511 128.72731635 -12.546875 130.30078125 C-9.73623677 130.74809171 -9.73623677 130.74809171 -6.50244141 130.66967773 C-5.25749908 130.67656113 -4.01255676 130.68344452 -2.72988892 130.6905365 C-2.06503101 130.68735853 -1.40017311 130.68418056 -0.715168 130.6809063 C1.37026702 130.67179326 3.45480337 130.68202135 5.54019165 130.69752502 C11.4681864 130.73761651 17.39611099 130.73882967 23.32421875 130.73657227 C26.95238058 130.73652109 30.58005872 130.75572732 34.20808792 130.78590584 C36.25846075 130.79671369 38.30790312 130.78461101 40.35824585 130.77207947 C41.60949249 130.78211502 42.86073914 130.79215057 44.14990234 130.80249023 C45.2489389 130.80232407 46.34797546 130.8021579 47.48031616 130.80198669 C51.17581195 131.42203772 52.84997773 132.64122127 55.453125 135.30078125 C56.015625 138.80078125 56.015625 138.80078125 55.453125 142.30078125 C53.28083597 145.21402814 52.09882148 146.19038152 48.48236084 146.80871582 C47.32512512 146.81189819 46.1678894 146.81508057 44.97558594 146.81835938 C43.66031921 146.83096802 42.34505249 146.84357666 40.9899292 146.85656738 C39.5557807 146.8494046 38.12163708 146.84119988 36.6875 146.83203125 C35.21022283 146.83472773 33.73294739 146.83861145 32.25567627 146.84362793 C29.15872305 146.84952312 26.06223152 146.84096498 22.96533203 146.82226562 C19.0132017 146.79955515 15.06216275 146.81254745 11.11007309 146.83655548 C8.05749449 146.8510818 5.00517001 146.84637512 1.95258331 146.83604431 C0.49666462 146.83339166 -0.95927779 146.83659493 -2.41516876 146.84596252 C-11.39614933 146.89104272 -18.46565102 146.68554403 -25.5703125 140.5546875 C-26.01632813 139.99652344 -26.46234375 139.43835938 -26.921875 138.86328125 C-27.38335938 138.30769531 -27.84484375 137.75210938 -28.3203125 137.1796875 C-30.78440769 133.40507035 -31.79592544 129.94963047 -31.81430054 125.46342468 C-31.82283051 124.51731323 -31.83136047 123.57120178 -31.84014893 122.59642029 C-31.83924255 121.57033157 -31.83833618 120.54424286 -31.83740234 119.48706055 C-31.84411957 118.39702728 -31.85083679 117.30699402 -31.85775757 116.18392944 C-31.87675326 112.58090657 -31.88066266 108.97806983 -31.8828125 105.375 C-31.88923953 102.8678225 -31.89596782 100.36064576 -31.90298462 97.85346985 C-31.91496146 92.59704381 -31.91875074 87.34066492 -31.91748047 82.08422852 C-31.91627997 76.02260914 -31.93736689 69.96134636 -31.9689678 63.89981717 C-31.99835131 58.05374461 -32.0054544 52.20781229 -32.00426102 46.36167336 C-32.00661836 43.88141232 -32.01544929 41.40114854 -32.03092575 38.92093468 C-32.05056737 35.44788593 -32.0447538 31.97574965 -32.03271484 28.50268555 C-32.04395386 27.48266953 -32.05519287 26.4626535 -32.06677246 25.41172791 C-32.00187867 18.0275471 -30.40153265 12.80950393 -25.72265625 7.05859375 C-24.80033203 6.25035156 -24.80033203 6.25035156 -23.859375 5.42578125 C-23.25738281 4.87148437 -22.65539062 4.3171875 -22.03515625 3.74609375 C-15.40021783 -0.10779513 -7.47270146 -0.00738538 0 0 Z M41.453125 27.30078125 C41.34480331 29.38296487 41.26738959 31.46677254 41.203125 33.55078125 C41.15671875 34.7109375 41.1103125 35.87109375 41.0625 37.06640625 C41.21096858 40.32565339 41.21096858 40.32565339 43.046875 42.70703125 C46.25759115 44.83360948 48.38655179 44.70344418 52.203125 44.55078125 C53.37359375 44.5146875 54.5440625 44.47859375 55.75 44.44140625 C57.08804688 44.37179688 57.08804688 44.37179688 58.453125 44.30078125 C53.48151282 38.28251387 48.15483257 32.63740773 42.453125 27.30078125 C42.123125 27.30078125 41.793125 27.30078125 41.453125 27.30078125 Z " fill="#6CB0BB" transform="translate(31.546875,-0.30078125)"/>
<path d="M0 0 C1.04647705 -0.0038269 2.0929541 -0.00765381 3.17114258 -0.01159668 C5.38005538 -0.01431438 7.58900044 -0.00696322 9.79785156 0.00976562 C13.17586119 0.03117623 16.5517439 0.00995803 19.9296875 -0.015625 C22.07812969 -0.0129817 24.22657055 -0.00785668 26.375 0 C27.38344971 -0.00809692 28.39189941 -0.01619385 29.4309082 -0.02453613 C33.80877514 0.03390763 36.48183584 0.12356219 40.328125 2.34570312 C42.1875 4.53125 42.1875 4.53125 42.75 8.03125 C42.1875 11.53125 42.1875 11.53125 40.8515625 13.71679688 C36.54560162 16.64952243 32.08946644 16.10135827 27 16.0625 C25.90534424 16.0663269 24.81068848 16.07015381 23.68286133 16.07409668 C21.36961955 16.07681736 19.05634708 16.06944534 16.74316406 16.05273438 C13.20047478 16.0313284 9.65981364 16.05253226 6.1171875 16.078125 C3.86978719 16.07548175 1.62238813 16.07035684 -0.625 16.0625 C-1.68549561 16.07059692 -2.74599121 16.07869385 -3.83862305 16.08703613 C-11.13317497 15.99392812 -11.13317497 15.99392812 -14.4765625 13.71679688 C-16.47588725 10.44597173 -16.41470577 8.2783081 -15.8125 4.53125 C-11.41607935 -0.63639149 -6.28319952 -0.05044831 0 0 Z " fill="#6DB0BB" transform="translate(44.8125,101.46875)"/>
<path d="M0 0 C1.04647705 -0.0038269 2.0929541 -0.00765381 3.17114258 -0.01159668 C5.38005538 -0.01431438 7.58900044 -0.00696322 9.79785156 0.00976562 C13.17586119 0.03117623 16.5517439 0.00995803 19.9296875 -0.015625 C22.07812969 -0.0129817 24.22657055 -0.00785668 26.375 0 C27.38344971 -0.00809692 28.39189941 -0.01619385 29.4309082 -0.02453613 C33.80877514 0.03390763 36.48183584 0.12356219 40.328125 2.34570312 C42.1875 4.53125 42.1875 4.53125 42.75 8.03125 C42.1875 11.53125 42.1875 11.53125 40.8515625 13.71679688 C36.54560162 16.64952243 32.08946644 16.10135827 27 16.0625 C25.90534424 16.0663269 24.81068848 16.07015381 23.68286133 16.07409668 C21.36961955 16.07681736 19.05634708 16.06944534 16.74316406 16.05273438 C13.20047478 16.0313284 9.65981364 16.05253226 6.1171875 16.078125 C3.86978719 16.07548175 1.62238813 16.07035684 -0.625 16.0625 C-1.68549561 16.07059692 -2.74599121 16.07869385 -3.83862305 16.08703613 C-11.13317497 15.99392812 -11.13317497 15.99392812 -14.4765625 13.71679688 C-16.47588725 10.44597173 -16.41470577 8.2783081 -15.8125 4.53125 C-11.41607935 -0.63639149 -6.28319952 -0.05044831 0 0 Z " fill="#6DB0BB" transform="translate(44.8125,72.46875)"/>
<path d="M0 0 C3.5 0.5625 3.5 0.5625 5.6875 1.94140625 C8.54334039 6.07129612 8.0797696 10.16331728 8 15.0625 C8.01546875 16.01253906 8.0309375 16.96257812 8.046875 17.94140625 C8.00805438 24.8417717 8.00805438 24.8417717 5.65234375 28.18359375 C2.64596059 30.10964322 1.00556537 30.20637935 -2.5 29.5625 C-5.28812256 27.52471042 -7.20074605 25.92084589 -7.96508789 22.45141602 C-8.13749795 19.97009868 -8.13293142 17.54853882 -8.0625 15.0625 C-8.07345703 14.22074219 -8.08441406 13.37898437 -8.09570312 12.51171875 C-8.0473451 8.41740586 -7.80974789 6.08407548 -5.68359375 2.50390625 C-3.5 0.5625 -3.5 0.5625 0 0 Z " fill="#6EB1BC" transform="translate(108.5,116.4375)"/>
<path d="M0 0 C3.08984375 0.4453125 3.08984375 0.4453125 6.46484375 2.5078125 C8.08984375 5.4453125 8.08984375 5.4453125 8.15234375 9.0703125 C6.96284417 12.84872292 6.45112708 13.55423991 3.08984375 15.4453125 C-0.00390625 15.87890625 -0.00390625 15.87890625 -3.41015625 15.8828125 C-5.09625 15.91181641 -5.09625 15.91181641 -6.81640625 15.94140625 C-10.52834602 15.34618359 -11.69366845 14.43437418 -13.91015625 11.4453125 C-14.46281584 7.57669535 -14.65718205 5.44672119 -12.28125 2.26171875 C-8.40100472 -0.71079205 -4.72377807 -0.15940758 0 0 Z " fill="#6FB1BC" transform="translate(42.91015625,43.5546875)"/>
<path d="M0 0 C2.375 1.5625 2.375 1.5625 4 4 C4.5625 7.5 4.5625 7.5 4 11 C1.9375 13.5 1.9375 13.5 -1 15 C-4.625 15.0625 -4.625 15.0625 -8 14 C-10.58094937 11.17708663 -11.01389559 9.69477972 -10.9375 5.875 C-10 3 -10 3 -8.3125 1.125 C-5.26389315 -0.35810604 -3.35257076 -0.48891657 0 0 Z " fill="#73B3BE" transform="translate(112,95)"/>
</svg>
