<?xml version="1.0" encoding="UTF-8"?>
<svg version="1.1" xmlns="http://www.w3.org/2000/svg" width="110" height="109">
<path d="M0 0 C3.99231055 0.75756022 5.4965203 2.31784365 8.35365295 5.18870544 C9.0987059 5.92521584 9.0987059 5.92521584 9.85881042 6.67660522 C11.49214002 8.29884619 13.10290455 9.94163105 14.71376038 11.58616638 C15.84512611 12.72110989 16.97760468 13.85494507 18.11114502 14.98771667 C20.4815243 17.36278442 22.84149685 19.74757798 25.19398499 22.1403656 C28.20952708 25.20690643 31.24447339 28.25329584 34.28674793 31.293293 C36.62536127 33.63272213 38.9560738 35.97988878 41.28420067 38.32975006 C42.40076842 39.45586206 43.51916039 40.58016832 44.63939857 41.70262909 C46.20289729 43.27263407 47.75612151 44.85212212 49.30677795 46.43479919 C50.19246964 47.33192627 51.07816132 48.22905334 51.99069214 49.15336609 C53.91047725 51.45513792 54.77096686 52.62152744 55.00672913 55.57054138 C54.06922913 58.25804138 54.06922913 58.25804138 52.00672913 60.57054138 C49.34945008 61.17593424 46.7293666 61.32053128 44.00672913 61.57054138 C44.03815002 63.05264099 44.03815002 63.05264099 44.07020569 64.56468201 C44.14309921 68.26212329 44.18870606 71.95950225 44.22645569 75.65745544 C44.24645966 77.25196546 44.27367213 78.84640317 44.30848694 80.44065857 C44.66001287 96.96237722 44.66001287 96.96237722 40.00672913 103.57054138 C36.56448769 107.12720321 33.41836886 109.44388602 28.33258057 109.71098328 C26.71758415 109.72122528 26.71758415 109.72122528 25.06996155 109.73167419 C23.84826767 109.74128174 22.62657379 109.75088928 21.36785889 109.76078796 C20.03264045 109.76563648 18.69741984 109.76991518 17.36219788 109.77366638 C15.99080402 109.77942116 14.61941019 109.78517885 13.24801636 109.79093933 C10.3722547 109.80144061 7.49652092 109.80728875 4.6207428 109.81077576 C0.94548901 109.81625409 -2.72939311 109.8402712 -6.40453053 109.86874771 C-9.23821062 109.88742317 -12.07180213 109.89258232 -14.90553856 109.89411163 C-16.9162564 109.89859054 -18.92692673 109.91721409 -20.93756104 109.93608093 C-22.1687114 109.93307983 -23.39986176 109.93007874 -24.6683197 109.92698669 C-25.74737076 109.93063232 -26.82642181 109.93427795 -27.93817139 109.93803406 C-33.11115697 109.3157845 -37.00521769 107.12751141 -40.30577087 103.13304138 C-40.79690369 102.55683044 -41.2880365 101.98061951 -41.79405212 101.38694763 C-44.54807727 97.21554146 -44.12543647 92.57695707 -44.09092712 87.74241638 C-44.08951218 86.99341064 -44.08809723 86.24440491 -44.0866394 85.47270203 C-44.08105746 83.08860726 -44.06850832 80.7046076 -44.05577087 78.32054138 C-44.05075354 76.70075107 -44.04619104 75.08095929 -44.042099 73.46116638 C-44.03109395 69.49758826 -44.01384178 65.53408093 -43.99327087 61.57054138 C-45.26944275 61.45194763 -46.54561462 61.33335388 -47.86045837 61.21116638 C-51.72764587 60.85179138 -51.72764587 60.85179138 -54.11827087 58.32054138 C-55.24057521 54.79329919 -54.65374715 53.83107032 -52.99327087 50.57054138 C-50.89494324 48.07107544 -50.89494324 48.07107544 -48.27159119 45.41307068 C-47.55409195 44.68045769 -47.55409195 44.68045769 -46.82209778 43.93304443 C-45.24639841 42.32896261 -43.65972998 40.73632581 -42.07139587 39.14476013 C-40.96739414 38.03111362 -39.86361735 36.91724408 -38.76005554 35.80316162 C-36.44858367 33.47375491 -34.13102234 31.15060499 -31.80967712 28.83103943 C-28.83736054 25.85902824 -25.88624489 22.86688693 -22.94000626 19.86905193 C-20.66826846 17.56395579 -18.38302267 15.27262714 -16.09375763 12.98494911 C-14.99969465 11.88734816 -13.91048813 10.7848839 -12.82631683 9.67751122 C-11.30893155 8.13071145 -9.77368221 6.60410895 -8.23252869 5.08103943 C-7.36364014 4.20787582 -6.49475159 3.33471222 -5.59953308 2.43508911 C-2.99327087 0.57054138 -2.99327087 0.57054138 0 0 Z M-2.48658752 16.823349 C-3.06838776 17.40959045 -3.65018799 17.99583191 -4.24961853 18.59983826 C-4.91015228 19.26052307 -5.57068604 19.92120789 -6.25123596 20.60191345 C-6.96274811 21.32374817 -7.67426025 22.04558289 -8.40733337 22.78929138 C-9.13697296 23.52176086 -9.86661255 24.25423035 -10.61836243 25.00889587 C-12.95638128 27.35814362 -15.28736548 29.71423756 -17.61827087 32.07054138 C-19.19854281 33.66083961 -20.77926616 35.25068941 -22.36045837 36.84007263 C-26.24332279 40.74503334 -30.12042796 44.65564278 -33.99327087 48.57054138 C-33.66327087 49.56054138 -33.33327087 50.55054138 -32.99327087 51.57054138 C-32.89963555 52.9456912 -32.85801826 54.32479151 -32.85142517 55.70310974 C-32.84439072 56.53084396 -32.83735626 57.35857819 -32.83010864 58.21139526 C-32.82594437 59.10206192 -32.82178009 59.99272858 -32.81748962 60.91038513 C-32.79429737 62.79646407 -32.77018028 64.68253183 -32.745224 66.56858826 C-32.71006659 69.54221656 -32.68073759 72.51543138 -32.66734314 75.48924255 C-32.65188589 78.3592979 -32.61169891 81.22814763 -32.56748962 84.09788513 C-32.56939804 84.98652756 -32.57130646 85.87516998 -32.57327271 86.79074097 C-32.49750633 90.60818647 -32.42261199 92.90049661 -30.3323822 96.1625824 C-27.38128403 97.93890879 -25.37941088 97.87837229 -21.99327087 97.57054138 C-21.98392517 96.63258728 -21.97457947 95.69463318 -21.96495056 94.72825623 C-21.9207765 91.22767814 -21.8590942 87.72829835 -21.78575134 84.22825623 C-21.75763305 82.717302 -21.73637316 81.20620318 -21.72227478 79.6950531 C-21.70071638 77.51478035 -21.65400772 75.33622919 -21.60264587 73.15647888 C-21.58169861 71.84727478 -21.56075134 70.53807068 -21.53916931 69.18919373 C-20.73555244 63.86217707 -18.34336459 60.8053832 -14.43077087 57.22679138 C-9.57441194 54.88690935 -5.31442247 54.98585462 0.00672913 55.07054138 C1.46465881 55.04733826 1.46465881 55.04733826 2.95204163 55.02366638 C8.7777525 55.05541413 12.53309108 55.47879927 17.00672913 59.57054138 C20.66912071 64.18266038 21.52242006 67.30122464 21.61610413 73.15647888 C21.63264038 73.85826263 21.64917664 74.56004639 21.66621399 75.28309631 C21.71443602 77.50400261 21.7360052 79.72422566 21.75672913 81.94554138 C21.78491074 83.4598982 21.81484123 84.97422354 21.84657288 86.48851013 C21.9201848 90.18237324 21.96991807 93.87610719 22.00672913 97.57054138 C26.79646123 97.80482452 26.79646123 97.80482452 31.00672913 95.57054138 C31.32015425 92.52300255 31.44772809 89.668775 31.44813538 86.61741638 C31.46134323 85.72443848 31.47455109 84.83146057 31.48815918 83.91142273 C31.5291547 81.0477646 31.5507385 78.18442697 31.56922913 75.32054138 C31.59305924 72.47103802 31.62130312 69.6218349 31.66101074 66.77250671 C31.68524543 64.99848346 31.7002033 63.2243023 31.70462036 61.45011902 C31.76325123 56.76533021 32.21124096 52.97768932 34.00672913 48.57054138 C29.35062494 43.86387597 24.68681442 39.16495186 20.01747131 34.47142029 C18.42875455 32.87262366 16.84183443 31.27203969 15.25672913 29.66966248 C12.98274658 27.37151887 10.70245601 25.07980516 8.42079163 22.78929138 C7.70927948 22.06745667 6.99776733 21.34562195 6.26469421 20.60191345 C5.60416046 19.94122864 4.94362671 19.28054382 4.26307678 18.59983826 C3.68127655 18.0135968 3.09947632 17.42735535 2.50004578 16.823349 C0.42924671 15.08606653 -0.41578846 15.08606653 -2.48658752 16.823349 Z M-9.99327087 68.57054138 C-10.27218234 71.58317863 -10.27218234 71.58317863 -10.18858337 75.10960388 C-10.18213806 76.41155701 -10.17569275 77.71351013 -10.16905212 79.05491638 C-10.15234017 80.43512734 -10.13541026 81.81533567 -10.11827087 83.19554138 C-10.10824093 84.5835559 -10.09911511 85.97157727 -10.09092712 87.35960388 C-10.06729018 90.7633233 -10.03141818 94.16695366 -9.99327087 97.57054138 C-3.39327087 97.57054138 3.20672913 97.57054138 10.00672913 97.57054138 C10.05266809 93.6376559 10.09248422 89.70545496 10.11659241 85.77244568 C10.13158407 83.7773452 10.15699644 81.78233192 10.18251038 79.78733826 C10.18895569 78.53372498 10.195401 77.28011169 10.20204163 75.98851013 C10.21251526 74.83117371 10.22298889 73.67383728 10.23377991 72.48143005 C10.22992776 69.37632965 10.22992776 69.37632965 8.00672913 66.57054138 C5.25131072 66.2944057 2.7558181 66.19796514 0.00672913 66.25804138 C-0.73061462 66.25481873 -1.46795837 66.25159607 -2.22764587 66.24827576 C-6.57803376 66.15135176 -6.57803376 66.15135176 -9.99327087 68.57054138 Z " fill="#6CAFBB" transform="translate(54.99327087402344,-0.5705413818359375)"/>
</svg>
