<?xml version="1.0" encoding="UTF-8"?>
<svg version="1.1" xmlns="http://www.w3.org/2000/svg" width="192" height="192">
<path d="M0 0 C0.97491394 -0.0127597 1.94982788 -0.02551941 2.95428467 -0.03866577 C4.00223206 -0.04089142 5.05017944 -0.04311707 6.12988281 -0.04541016 C7.75763641 -0.05539536 7.75763641 -0.05539536 9.41827393 -0.06558228 C11.71470445 -0.07570552 14.01116437 -0.0803994 16.30761719 -0.08007812 C19.80616344 -0.08443919 23.30343573 -0.12073047 26.80175781 -0.15869141 C29.03612851 -0.16456215 31.27050519 -0.16852982 33.50488281 -0.17041016 C34.54473328 -0.18478119 35.58458374 -0.19915222 36.65594482 -0.21395874 C43.22949158 -0.17299893 47.48283106 0.77465153 53.08300781 4.29052734 C54.3421787 6.80886912 54.23048269 8.57644787 54.26000977 11.39526367 C54.27926262 12.9925103 54.27926262 12.9925103 54.29890442 14.62202454 C54.30629135 15.77720078 54.31367828 16.93237701 54.32128906 18.12255859 C54.32936081 19.30645676 54.33743256 20.49035492 54.3457489 21.71012878 C54.35959845 24.21941662 54.37031669 26.72872336 54.37817383 29.23803711 C54.39539046 33.07686018 54.43927099 36.91482316 54.48339844 40.75341797 C54.4935247 43.1889585 54.50204101 45.62450636 54.50878906 48.06005859 C54.52629715 49.20916214 54.54380524 50.35826569 54.56184387 51.54219055 C54.54011587 59.52085574 54.54011587 59.52085574 52.18139648 63.49243164 C48.92000784 66.28709451 46.50962461 66.52447127 42.25097656 66.91162109 C39.43957521 66.1061926 37.87129669 64.65376066 36.10229492 62.35620117 C33.96132066 58.01733095 34.29680723 53.16111175 34.27050781 48.41552734 C34.24537109 47.34560547 34.22023437 46.27568359 34.19433594 45.17333984 C34.1356758 42.5453657 34.09924111 39.91904909 34.08300781 37.29052734 C33.53773438 37.96857422 32.99246094 38.64662109 32.43066406 39.34521484 C28.57994251 44.09772931 24.70402145 48.76976812 20.58300781 53.29052734 C16.7506527 57.50016094 13.14120437 61.85072683 9.55566406 66.27099609 C6.64187754 69.82922198 3.68682051 73.34917698 0.70800781 76.85302734 C0.19584717 77.46114258 -0.31631348 78.06925781 -0.84399414 78.69580078 C-6.3324094 85.12490511 -6.3324094 85.12490511 -11.18945312 85.63256836 C-15.5158303 85.23557763 -17.84933758 84.05184268 -21.55761719 81.81787109 C-22.16530945 81.45714005 -22.77300171 81.096409 -23.39910889 80.7247467 C-25.33063264 79.57330662 -27.24855162 78.40110658 -29.16699219 77.22802734 C-30.43830816 76.46689134 -31.71043854 75.70711389 -32.98339844 74.94873047 C-39.68600518 70.93576062 -46.24552571 66.81206604 -52.63867188 62.31225586 C-54.85906531 61.01841515 -54.85906531 61.01841515 -57.0637207 61.93286133 C-59.97920914 64.06868417 -61.9650807 66.91984809 -64.10449219 69.79052734 C-67.40171962 74.10769713 -70.72431061 78.29843915 -74.41699219 82.29052734 C-77.94733785 86.12293466 -81.17310309 90.10803139 -84.35449219 94.22802734 C-97.33087151 110.997467 -97.33087151 110.997467 -101.91699219 113.29052734 C-106.0984323 113.68500283 -108.22645267 113.74087921 -111.79199219 111.41552734 C-114.37348842 108.83403111 -114.82750194 107.83865512 -115.41699219 104.22802734 C-114.68515105 98.4647784 -111.66532429 95.5780476 -107.91699219 91.29052734 C-107.0490285 90.26624316 -106.18325114 89.24010345 -105.31933594 88.21240234 C-103.44501476 85.98483217 -101.56284019 83.76429561 -99.67480469 81.54833984 C-97.21910848 78.65818736 -94.81022055 75.73273999 -92.41699219 72.79052734 C-88.67375068 68.19168777 -84.85839782 63.6599661 -81.01611328 59.14404297 C-77.26759401 54.72967697 -73.61018012 50.24629024 -69.98730469 45.72802734 C-69.30410156 44.92365234 -68.62089844 44.11927734 -67.91699219 43.29052734 C-67.17191406 42.36240234 -66.42683594 41.43427734 -65.65917969 40.47802734 C-62.64290641 38.07188342 -60.81415341 37.62370179 -56.96972656 37.88623047 C-53.48751186 38.57207104 -50.64231181 40.19947559 -47.66699219 42.04052734 C-46.99877441 42.43449707 -46.33055664 42.8284668 -45.64208984 43.234375 C-43.38932339 44.56875732 -41.15330627 45.92877015 -38.91699219 47.29052734 C-37.15988188 48.34638428 -35.40204414 49.40103141 -33.64355469 50.45458984 C-31.00617293 52.03472469 -28.3708716 53.61754665 -25.74414062 55.21533203 C-21.54159535 57.76524792 -17.35681996 60.17837627 -12.91699219 62.29052734 C-7.0622056 55.47526966 -1.21302551 48.65587663 4.58300781 41.79052734 C10.37904113 34.92517806 16.22822122 28.10578503 22.08300781 21.29052734 C21.05470774 20.03529294 21.05470774 20.03529294 18.84570312 20.20874023 C17.39309082 20.2356897 17.39309082 20.2356897 15.91113281 20.26318359 C14.85410156 20.27542969 13.79707031 20.28767578 12.70800781 20.30029297 C10.47356413 20.33520615 8.23918029 20.37421062 6.00488281 20.41748047 C4.94269531 20.4284375 3.88050781 20.43939453 2.78613281 20.45068359 C1.81321289 20.46752197 0.84029297 20.48436035 -0.16210938 20.50170898 C-4.48323753 20.17046334 -7.12823163 19.05797005 -10.22949219 16.04052734 C-12.25973077 12.7319904 -12.47407695 11.11053715 -11.91699219 7.29052734 C-9.31377729 1.56345456 -6.12878826 0.0546324 0 0 Z " fill="#54D62C" transform="translate(125.9169921875,35.70947265625)"/>
</svg>
