<?xml version="1.0" encoding="UTF-8"?>
<svg version="1.1" xmlns="http://www.w3.org/2000/svg" width="110" height="109">
<path d="M0 0 C2.26338695 0.03440094 4.52287991 0.02061299 6.78637695 0.0012207 C8.23886736 0.0081184 9.6913478 0.01779011 11.14379883 0.03051758 C13.10361694 0.04683228 13.10361694 0.04683228 15.10302734 0.06347656 C20.44360554 0.85498191 23.50051584 3.23263131 27.01489258 7.22192383 C29.49387817 10.71086651 29.81926291 12.4810377 29.76489258 16.72192383 C29.75586914 17.63200195 29.7468457 18.54208008 29.73754883 19.47973633 C29.72594727 20.1784082 29.7143457 20.87708008 29.70239258 21.59692383 C30.98823242 21.5447168 30.98823242 21.5447168 32.30004883 21.49145508 C40.71999219 21.29211031 46.03807113 21.33974921 52.51489258 27.09692383 C57.12504782 32.36567267 57.81580181 36.4388252 57.86352539 43.27001953 C57.87313293 44.3850032 57.88274048 45.49998688 57.89263916 46.64875793 C57.89688904 47.84466049 57.90113892 49.04056305 57.90551758 50.27270508 C57.91121765 51.51183151 57.91691772 52.75095795 57.92279053 54.02763367 C57.93222908 56.64764556 57.93876996 59.26766926 57.94262695 61.88769531 C57.94701637 64.56361494 57.96093008 67.23921299 57.98364258 69.91503906 C58.01416788 73.78436015 58.02468174 77.65327685 58.03051758 81.52270508 C58.04286438 82.71253494 58.05521118 83.90236481 58.06793213 85.12825012 C58.04866159 92.3484636 57.84723644 98.90575965 52.94848633 104.65551758 C52.35165039 105.11055664 51.75481445 105.5655957 51.13989258 106.03442383 C50.54047852 106.50750977 49.94106445 106.9805957 49.32348633 107.46801758 C45.58388908 110.07221904 42.09900633 109.7588486 37.69189453 109.77392578 C36.86403946 109.78049698 36.03618439 109.78706818 35.1832428 109.7938385 C32.43571893 109.81359389 29.68824984 109.82524057 26.94067383 109.83520508 C26.00244467 109.83928061 25.06421551 109.84335613 24.09755516 109.84755516 C19.12932937 109.86842789 14.16113127 109.88272301 9.19287109 109.89208984 C4.06595458 109.90314207 -1.06052645 109.93752484 -6.18728924 109.97726154 C-10.13276463 110.0034386 -14.07813659 110.01178277 -18.02369118 110.01537132 C-19.91308335 110.02023638 -21.80247092 110.03184807 -23.69177818 110.05040932 C-26.34157883 110.07481852 -28.99025751 110.07383235 -31.64013672 110.06689453 C-32.41599121 110.07970459 -33.1918457 110.09251465 -33.99121094 110.10571289 C-39.52766 110.05307496 -42.72024834 108.73573122 -47.29760742 105.59692383 C-51.55551468 101.00286599 -52.4203082 97.72845405 -52.45874023 91.56835938 C-52.46834778 90.32664474 -52.47795532 89.08493011 -52.487854 87.80558777 C-52.49270248 86.44827458 -52.49698119 85.09095925 -52.50073242 83.73364258 C-52.50648706 82.33982848 -52.51224475 80.94601439 -52.51800537 79.55220032 C-52.52850705 76.62936027 -52.53435494 73.70654766 -52.5378418 70.78369141 C-52.54332038 67.04790611 -52.56733788 63.31248642 -52.59581375 59.57681561 C-52.61448728 56.69681253 -52.61964826 53.81689663 -52.62117767 50.93683815 C-52.62419485 49.56018898 -52.63219175 48.18354099 -52.64536285 46.80695152 C-52.66251771 44.87593233 -52.65868471 42.94476171 -52.65405273 41.01367188 C-52.65769836 39.91685593 -52.66134399 38.82003998 -52.6651001 37.68998718 C-52.05687889 32.57079206 -50.13503025 29.41573726 -46.48510742 25.84692383 C-39.64716885 21.02014366 -33.40418815 21.36080983 -25.29760742 21.59692383 C-25.38010742 20.44192383 -25.46260742 19.28692383 -25.54760742 18.09692383 C-25.51315074 11.60758129 -23.12032203 7.47948876 -18.68041992 2.89379883 C-13.22627941 -0.82541774 -6.34138516 -0.10689665 0 0 Z M-13.29760742 13.59692383 C-13.29760742 16.23692383 -13.29760742 18.87692383 -13.29760742 21.59692383 C-2.73760742 21.59692383 7.82239258 21.59692383 18.70239258 21.59692383 C19.29643193 15.23023075 19.29643193 15.23023075 17.56958008 12.68212891 C14.92193002 11.14332078 12.87982461 11.2250133 9.82739258 11.23364258 C8.67754883 11.23428711 7.52770508 11.23493164 6.34301758 11.2355957 C5.14161133 11.25170898 3.94020508 11.26782227 2.70239258 11.28442383 C1.50098633 11.28120117 0.29958008 11.27797852 -0.93823242 11.2746582 C-7.49045769 11.06853024 -7.49045769 11.06853024 -13.29760742 13.59692383 Z M-40.28063965 35.82287598 C-41.58444077 38.88690683 -41.58444077 38.88690683 -41.29760742 43.59692383 C-12.58760742 43.59692383 16.12239258 43.59692383 45.70239258 43.59692383 C46.25041838 37.26603577 46.25041838 37.26603577 44.6854248 34.68566895 C41.57771338 32.97944068 38.43012593 33.16334951 34.97387695 33.17700195 C33.79538933 33.16429764 33.79538933 33.16429764 32.59309387 33.15133667 C29.99394585 33.12792135 27.39538812 33.12694546 24.79614258 33.12817383 C22.99157472 33.12107564 21.18700913 33.11337715 19.38244629 33.10510254 C15.59954555 33.09164781 11.81685354 33.09009369 8.03393555 33.09594727 C3.18109831 33.10184836 -1.67074018 33.07123998 -6.52338409 33.03083038 C-10.24999406 33.00501009 -13.97636162 33.0020707 -17.70304871 33.00572205 C-19.49247247 33.00402587 -21.28190684 32.99433572 -23.07124329 32.97657776 C-25.57121111 32.95449574 -28.06913232 32.96403254 -30.5690918 32.98168945 C-31.31100266 32.96842621 -32.05291351 32.95516296 -32.81730652 32.9414978 C-36.34641331 32.99955596 -37.88374808 33.13236703 -40.28063965 35.82287598 Z M-41.29760742 55.59692383 C-43.43164989 77.3367709 -43.43164989 77.3367709 -39.29760742 97.59692383 C-36.28824334 99.10160587 -33.18332902 98.75296817 -29.88208008 98.75805664 C-29.11768112 98.76302155 -28.35328217 98.76798645 -27.5657196 98.77310181 C-25.0310273 98.78773495 -22.49639757 98.79452728 -19.96166992 98.80004883 C-18.20291135 98.80579928 -16.44415281 98.81155702 -14.68539429 98.81732178 C-10.9949311 98.82783501 -7.30448973 98.83367558 -3.61401367 98.8371582 C1.11629305 98.84264403 5.84631208 98.8666725 10.57652855 98.89513016 C14.21048832 98.91374808 17.84437867 98.91896168 21.47838211 98.92049408 C23.2223124 98.92352299 24.9662414 98.93155955 26.71012497 98.94467926 C29.14966508 98.96172254 31.58850078 98.95986397 34.02807617 98.95336914 C35.1098539 98.96719131 35.1098539 98.96719131 36.21348572 98.98129272 C40.80923315 98.94293906 41.79773799 98.52541477 45.70239258 95.59692383 C45.70239258 82.39692383 45.70239258 69.19692383 45.70239258 55.59692383 C16.99239258 55.59692383 -11.71760742 55.59692383 -41.29760742 55.59692383 Z " fill="#6FB1BC" transform="translate(52.297607421875,-0.596923828125)"/>
<path d="M0 0 C2.27338765 2.6522856 2.95526736 4.32901036 3.1875 7.8125 C3.0946875 8.8953125 3.0946875 8.8953125 3 10 C4.918125 10.185625 4.918125 10.185625 6.875 10.375 C10.75 10.75 10.75 10.75 13 13 C13.3267107 16.07108055 13.48138276 18.15050101 11.9375 20.875 C8.99772876 22.58196395 6.32129197 22.18799766 3 22 C3.12375 23.3303125 3.12375 23.3303125 3.25 24.6875 C2.94791837 28.69008159 1.70272533 30.12835434 -1 33 C-3.875 32.6875 -3.875 32.6875 -7 32 C-9.4294516 28.3558226 -9.16179575 26.28758728 -9 22 C-10.60875 22.12375 -10.60875 22.12375 -12.25 22.25 C-16 22 -16 22 -18.5 20.3125 C-20 18 -20 18 -20.0625 15.4375 C-18.6432271 12.181521 -17.2317229 11.39551671 -14 10 C-11.1875 9.8125 -11.1875 9.8125 -9 10 C-9.061875 8.906875 -9.12375 7.81375 -9.1875 6.6875 C-9 3 -9 3 -7.875 1.0625 C-5.04485189 -0.54125059 -3.18502524 -0.53083754 0 0 Z " fill="#71B2BD" transform="translate(58,60)"/>
</svg>
