<?xml version="1.0" encoding="UTF-8"?>
<svg version="1.1" xmlns="http://www.w3.org/2000/svg" width="192" height="192">
<path d="M0 0 C1 1 1 1 1.09765625 2.84765625 C1.06510417 4.8984375 1.03255208 6.94921875 1 9 C0.34 9 -0.32 9 -1 9 C-1.28875 9.7425 -1.5775 10.485 -1.875 11.25 C-2.82302644 13.56739797 -3.84845911 15.77917115 -5 18 C-4.484375 18.515625 -3.96875 19.03125 -3.4375 19.5625 C-1.86335948 22.2316948 -1.5720078 23.83361127 -2.16796875 26.87890625 C-5.24871815 34.73264767 -11.83729709 41.39997866 -18 47 C-19.04414063 47.96292969 -19.04414063 47.96292969 -20.109375 48.9453125 C-25.5503212 53.85010707 -25.5503212 53.85010707 -29 55 C-29.67780054 56.32770805 -30.34311897 57.66181857 -31 59 C-32.76953125 60.703125 -32.76953125 60.703125 -34.8125 62.25 C-35.81216797 63.03117187 -35.81216797 63.03117187 -36.83203125 63.828125 C-39.45154868 65.24408037 -41.06249422 65.36900899 -44 65 C-46 63 -46 63 -46.0625 59.5625 C-45.711875 58.386875 -45.36125 57.21125 -45 56 C-41.9375 54.5625 -41.9375 54.5625 -40.0234375 53.92578125 C-36.68135556 52.39668199 -34.53250558 49.74813333 -32.0390625 47.10546875 C-30.09816067 45.10135748 -28.08439828 43.34052966 -25.9375 41.5625 C-21.62670408 37.87484884 -18.32072416 33.57637298 -15 29 C-15.42410156 29.36351563 -15.84820312 29.72703125 -16.28515625 30.1015625 C-16.87167969 30.60429688 -17.45820313 31.10703125 -18.0625 31.625 C-19.01382813 32.44291016 -19.01382813 32.44291016 -19.984375 33.27734375 C-21.30067429 34.40232046 -22.6233584 35.51988091 -23.953125 36.62890625 C-24.56671875 37.14324219 -25.1803125 37.65757813 -25.8125 38.1875 C-26.37582031 38.65542969 -26.93914062 39.12335938 -27.51953125 39.60546875 C-29.24939571 41.12999004 -29.24939571 41.12999004 -31 44 C-31.66 44 -32.32 44 -33 44 C-33.0928125 44.62519531 -33.185625 45.25039062 -33.28125 45.89453125 C-33.5184375 46.58933594 -33.755625 47.28414062 -34 48 C-35.89456381 48.91345041 -37.79251279 49.82055449 -39.70703125 50.69140625 C-42.34666903 52.19784349 -44.09495509 53.92415332 -46.1875 56.125 C-49.64807565 59.76395584 -53.29074164 62.88339909 -57.3125 65.875 C-61.6858172 69.12989923 -65.69020873 72.52079205 -69.625 76.3125 C-76.66893011 83.01745599 -84.73570558 88.25529764 -92.84277344 93.57861328 C-94.70264127 94.80407169 -96.54575765 96.04936792 -98.3828125 97.30859375 C-103.53296495 100.75876552 -107.82114879 103.11730697 -114 104 C-114.99 103.67 -115.98 103.34 -117 103 C-117.66131596 97.7094723 -116.04553852 94.84303382 -113.2890625 90.5390625 C-112.65097656 89.77722656 -112.65097656 89.77722656 -112 89 C-111.34 89 -110.68 89 -110 89 C-109.73880371 88.41661865 -109.47760742 87.8332373 -109.20849609 87.23217773 C-107.92707336 84.86529933 -106.52430023 83.22406327 -104.6640625 81.28515625 C-104.01179688 80.59873047 -103.35953125 79.91230469 -102.6875 79.20507812 C-102.006875 78.49802734 -101.32625 77.79097656 -100.625 77.0625 C-95.53165076 71.78375093 -95.53165076 71.78375093 -90.78515625 66.19921875 C-88.9587886 63.94922973 -87.15600539 62.44039733 -84.8125 60.75 C-81.48410325 58.24557118 -78.56873131 55.63195777 -75.6875 52.625 C-71.39580602 48.20485743 -66.68617489 44.62184316 -61.69921875 41.04296875 C-56.7293326 37.44034467 -56.7293326 37.44034467 -54.375 32.0625 C-52.4736415 27.82765606 -49.95913186 27.37206304 -45.84375 25.5390625 C-42.58148638 23.77349675 -40.2476325 21.67896223 -37.5625 19.125 C-32.42754894 14.25041266 -27.08068673 10.58716771 -21 7 C-20.07316406 6.43023437 -19.14632812 5.86046875 -18.19140625 5.2734375 C-11.68926532 1.29099414 -7.63696888 -0.24635383 0 0 Z M-13 25 C-12 27 -12 27 -12 27 Z " fill="#679DA5" transform="translate(190,50)"/>
<path d="M0 0 C0.83401337 -0.00335861 1.66802673 -0.00671722 2.52731323 -0.01017761 C5.27115397 -0.01963142 8.01493306 -0.0216294 10.75878906 -0.02270508 C12.69810001 -0.02592669 14.63741073 -0.02929141 16.57672119 -0.03279114 C20.64848389 -0.03877231 24.72022541 -0.0406326 28.79199219 -0.04003906 C32.91117815 -0.03995849 37.03025129 -0.04678942 41.14941406 -0.06054688 C104.44589516 -0.26899578 104.44589516 -0.26899578 111.27441406 3.14526367 C112.48341728 53.11632477 112.48341728 53.11632477 112.27441406 76.14526367 C110.95441406 76.14526367 109.63441406 76.14526367 108.27441406 76.14526367 C106.7958803 73.18819614 107.05101635 70.46424725 106.95800781 67.16479492 C106.9371814 66.45169662 106.91635498 65.73859833 106.89489746 65.00389099 C106.82847028 62.65529474 106.76977748 60.30658548 106.71191406 57.95776367 C106.69073517 57.16035767 106.66955627 56.36295166 106.6477356 55.54138184 C106.22103698 39.40801408 106.16181595 23.28317138 106.27441406 7.14526367 C105.59121094 7.15686523 104.90800781 7.1684668 104.20410156 7.18041992 C93.16031291 7.27927737 82.37443046 6.64980987 71.27441406 6.14526367 C43.55441406 6.14526367 15.83441406 6.14526367 -12.72558594 6.14526367 C-12.72558594 62.90526367 -12.72558594 119.66526367 -12.72558594 178.14526367 C-11.40558594 177.81526367 -10.08558594 177.48526367 -8.72558594 177.14526367 C-6.5087323 177.02969819 -4.28896131 176.96686237 -2.06933594 176.93432617 C-0.66641288 176.90822825 0.73650014 176.88158718 2.1394043 176.85449219 C2.89051483 176.8412088 3.64162537 176.82792542 4.41549683 176.8142395 C39.73954793 176.15571514 75.03827033 173.62963482 110.27441406 171.14526367 C110.20295166 170.56800537 110.13148926 169.99074707 110.05786133 169.39599609 C109.05021612 160.08605838 109.16306857 150.807529 109.21191406 141.45776367 C109.21694069 139.77352022 109.22150153 138.0892753 109.22558594 136.4050293 C109.23649579 132.31840414 109.25369586 128.23185039 109.27441406 124.14526367 C110.59441406 124.14526367 111.91441406 124.14526367 113.27441406 124.14526367 C114.02787198 127.5003591 114.39720134 130.59118435 114.38793945 134.02734375 C114.38786392 134.96794144 114.38778839 135.90853912 114.38771057 136.87763977 C114.38254929 137.87990097 114.377388 138.88216217 114.37207031 139.91479492 C114.36994789 141.46900398 114.36994789 141.46900398 114.36778259 143.05461121 C114.36219648 146.35569171 114.34964648 149.65670376 114.33691406 152.95776367 C114.33189727 155.19929915 114.32733468 157.44083569 114.32324219 159.68237305 C114.31223159 165.17002651 114.29550725 170.6576402 114.27441406 176.14526367 C103.06676146 177.68433927 91.87700356 178.73147174 80.59399414 179.52294922 C77.97474177 179.70686296 75.35601885 179.89721306 72.73730469 180.08862305 C71.00360796 180.21335109 69.26988475 180.33771171 67.53613281 180.46166992 C66.78756516 180.51585587 66.0389975 180.57004181 65.26774597 180.62586975 C62.60401562 180.81159277 59.93940076 180.97849477 57.27441406 181.14526367 C56.00554352 181.23202362 54.73667297 181.31878357 53.42935181 181.40817261 C38.65398215 182.35163469 23.8863337 182.25778403 9.08691406 182.20776367 C6.4755868 182.20273534 3.8642586 182.19817481 1.25292969 182.1940918 C-5.07326319 182.18319946 -11.39941999 182.16656845 -17.72558594 182.14526367 C-17.74891231 158.69345121 -17.76656382 135.24164048 -17.77739811 111.78981876 C-17.78256162 100.90154191 -17.78960537 90.01327224 -17.80102539 79.125 C-17.81097054 69.63842799 -17.81743896 60.15186118 -17.81967443 50.6652841 C-17.82098183 45.63893612 -17.82406949 40.61260305 -17.83131599 35.58625984 C-17.83807354 30.8610447 -17.84020344 26.13585069 -17.83869362 21.41063118 C-17.83897007 19.67110072 -17.84097676 17.9315696 -17.84479141 16.1920433 C-17.84972453 13.82767382 -17.84858566 11.46338542 -17.84584045 9.09901428 C-17.8487533 8.40155643 -17.85166614 7.70409858 -17.85466725 6.98550564 C-17.83970715 2.25938488 -17.83970715 2.25938488 -16.72558594 1.14526367 C-11.12067333 0.26333493 -5.66541316 -0.00333954 0 0 Z " fill="#71A4AB" transform="translate(17.7255859375,5.854736328125)"/>
<path d="M0 0 C1.32 0 2.64 0 4 0 C4.66 0.99 5.32 1.98 6 3 C6.66 2.34 7.32 1.68 8 1 C9.6875 1.3125 9.6875 1.3125 12 2 C14.33094534 2.3496418 16.66404762 2.68554487 19 3 C20.09240767 5.91308713 19.90738289 8.11993502 19.4375 11.125 C19.293125 12.40375 19.14875 13.6825 19 15 C20.80074945 17.22229436 20.80074945 17.22229436 23.27734375 17.23046875 C24.59412109 17.20919922 24.59412109 17.20919922 25.9375 17.1875 C26.81277344 17.18105469 27.68804687 17.17460937 28.58984375 17.16796875 C31.1437675 17.09069243 31.1437675 17.09069243 34 16 C36.33299825 15.96045766 38.66708189 15.95598268 41 16 C41 17.32 41 18.64 41 20 C25.59424084 24.83769634 25.59424084 24.83769634 17.5625 21.625 C15 20 15 20 13 18 C12.875 14.875 12.875 14.875 13 12 C12.22914062 12 11.45828125 12 10.6640625 12 C7.109375 12 3.5546875 12 0 12 C-0.89756951 13.0476549 -1.74374295 14.1396628 -2.5625 15.25 C-6.0270549 19.43633717 -9.8366239 21.43390247 -15 23 C-18.0625 23.25 -18.0625 23.25 -20 23 C-20 21.68 -20 20.36 -20 19 C-18.82244141 18.55914062 -18.82244141 18.55914062 -17.62109375 18.109375 C-8.61083072 14.26204796 -5.17883329 9.69575988 -1 1 C-0.67 0.67 -0.34 0.34 0 0 Z " fill="#6EA2AA" transform="translate(46,149)"/>
<path d="M0 0 C0.69763458 -0.0025882 1.39526917 -0.00517639 2.11404419 -0.00784302 C4.05128135 -0.01359218 5.98853811 -0.01095269 7.92578125 -0.0078125 C8.99868408 -0.00668457 10.07158691 -0.00555664 11.17700195 -0.00439453 C13.6875 0.125 13.6875 0.125 15.6875 1.125 C15.3575 2.445 15.0275 3.765 14.6875 5.125 C6.18357055 6.29816239 -2.30377088 6.36618334 -10.87109375 6.4765625 C-12.46770054 6.49971639 -14.06430391 6.52310696 -15.66090393 6.54672241 C-18.98834005 6.59490603 -22.31580013 6.63988298 -25.64331055 6.68261719 C-29.91286774 6.73776303 -34.18224594 6.80156955 -38.45164394 6.86779213 C-41.73974485 6.91775833 -45.02789828 6.96291987 -48.31608772 7.00663376 C-49.89142114 7.02821177 -51.46673384 7.05136098 -53.0420208 7.0760994 C-55.23428098 7.10986448 -57.42652667 7.13710442 -59.61889648 7.16259766 C-60.86638168 7.17956696 -62.11386688 7.19653625 -63.39915466 7.21401978 C-66.3125 7.125 -66.3125 7.125 -68.3125 6.125 C-68.3125 4.805 -68.3125 3.485 -68.3125 2.125 C-66.06665623 1.00207812 -64.78808947 0.97270054 -62.29467773 0.91967773 C-61.45926453 0.89974258 -60.62385132 0.87980743 -59.76312256 0.85926819 C-58.85000305 0.84254562 -57.93688354 0.82582306 -56.99609375 0.80859375 C-55.56780243 0.77728615 -55.56780243 0.77728615 -54.11065674 0.74534607 C-50.99052257 0.67893975 -47.8703062 0.62021795 -44.75 0.5625 C-43.694711 0.54165344 -42.639422 0.52080688 -41.55215454 0.49932861 C-27.70207386 0.22633114 -13.85286584 0.02407187 0 0 Z " fill="#72A5AC" transform="translate(93.3125,95.875)"/>
<path d="M0 0 C0.84175781 0.05285156 1.68351562 0.10570312 2.55078125 0.16015625 C5.68691564 0.37252441 8.7246119 0.58043224 11.79997253 1.25297546 C14.56143029 1.76130817 17.1270278 1.90844677 19.93286133 1.95532227 C20.99358353 1.97526749 22.05430573 1.99521271 23.14717102 2.01576233 C24.2806749 2.03247482 25.41417877 2.04918732 26.58203125 2.06640625 C27.75134689 2.08718735 28.92066254 2.10796844 30.12541199 2.12937927 C33.85438253 2.19467414 37.58342247 2.25366659 41.3125 2.3125 C43.84310609 2.35570429 46.3737052 2.39931919 48.90429688 2.44335938 C55.10279158 2.550335 61.30135506 2.65213848 67.5 2.75 C67.995 3.74 67.995 3.74 68.5 4.75 C68.17 5.74 67.84 6.73 67.5 7.75 C59.86857828 7.77549801 52.23716767 7.79292872 44.60571289 7.80493164 C42.0132608 7.80993918 39.4208115 7.81674714 36.82836914 7.82543945 C33.0873953 7.83766251 29.34645902 7.84326426 25.60546875 7.84765625 C24.45918503 7.85281754 23.31290131 7.85797882 22.13188171 7.86329651 C15.96681379 7.86371971 9.91482009 7.62085655 3.78196716 6.97828674 C0.97454399 6.69743367 -1.80439225 6.61677665 -4.625 6.625 C-5.53507812 6.62242188 -6.44515625 6.61984375 -7.3828125 6.6171875 C-9.48523647 6.51475335 -9.48523647 6.51475335 -10.5 7.75 C-12.16617115 7.79063832 -13.83388095 7.792721 -15.5 7.75 C-15.2441689 4.59474982 -14.98421423 3.16655954 -12.54296875 1.06640625 C-8.24018494 -0.79500343 -4.60497202 -0.3737573 0 0 Z " fill="#73A5AD" transform="translate(37.5,34.25)"/>
<path d="M0 0 C1.47669159 0.00068733 1.47669159 0.00068733 2.98321533 0.00138855 C5.06418057 0.00439846 7.14514381 0.01224677 9.22607422 0.0246582 C12.33960389 0.04267353 15.45283035 0.04516902 18.56640625 0.04492188 C29.94399634 0.06562774 41.2713352 0.35787569 52.62988281 1.01831055 C55.63823545 1.19112101 58.62611239 1.27764127 61.640625 1.23046875 C62.135625 3.21046875 62.135625 3.21046875 62.640625 5.23046875 C59.00198256 7.65623038 56.33926133 7.49266359 52.140625 7.41796875 C51.48320313 7.41732422 50.82578125 7.41667969 50.1484375 7.41601562 C46.33047766 7.38310218 42.59250841 7.13575173 38.796875 6.7265625 C31.26927251 6.00210249 23.73473667 6.08109308 16.1796875 6.10009766 C13.64577248 6.10545786 11.11203466 6.100124 8.578125 6.09375 C0.85647622 6.09166839 -6.74928968 6.15420808 -14.42578125 7.11376953 C-16.359375 7.23046875 -16.359375 7.23046875 -18.359375 6.23046875 C-18.359375 4.91046875 -18.359375 3.59046875 -18.359375 2.23046875 C-12.10358644 0.39136167 -6.50051032 -0.05054945 0 0 Z " fill="#679CA5" transform="translate(42.359375,48.76953125)"/>
<path d="M0 0 C15.50769231 -0.24615385 15.50769231 -0.24615385 20 2 C21.20900322 51.97106109 21.20900322 51.97106109 21 75 C19.68 75 18.36 75 17 75 C15.52146623 72.04293247 15.77660229 69.31898358 15.68359375 66.01953125 C15.66276733 65.30643295 15.64194092 64.59333466 15.6204834 63.85862732 C15.55405622 61.51003107 15.49536342 59.16132181 15.4375 56.8125 C15.41632111 56.01509399 15.39514221 55.21768799 15.37332153 54.39611816 C14.94662291 38.26275041 14.88740189 22.13790771 15 6 C14.10796875 6.02320313 13.2159375 6.04640625 12.296875 6.0703125 C11.12640625 6.08835937 9.9559375 6.10640625 8.75 6.125 C7.00976562 6.15980469 7.00976562 6.15980469 5.234375 6.1953125 C2 6 2 6 -2 4 C3.94 3.505 3.94 3.505 10 3 C6.7 2.67 3.4 2.34 0 2 C0 1.34 0 0.68 0 0 Z " fill="#71A4AC" transform="translate(109,7)"/>
<path d="M0 0 C0.495 1.485 0.495 1.485 1 3 C0.67 3.66 0.34 4.32 0 5 C-1.16869629 5.0501123 -2.33739258 5.10022461 -3.54150391 5.15185547 C-7.94401068 5.34248348 -12.34606447 5.54228214 -16.74804688 5.74462891 C-18.64084153 5.83040219 -20.53374551 5.91380144 -22.42675781 5.99462891 C-32.4131024 6.4226151 -42.23498227 6.93207392 -52.10302734 8.60205078 C-55.10434084 9.01433302 -57.97441795 9.06703487 -61 9 C-61.33 7.68 -61.66 6.36 -62 5 C-41.17447733 0.744103 -21.27881959 -0.29560232 0 0 Z " fill="#6EA2AA" transform="translate(88,109)"/>
<path d="M0 0 C0.9237442 0.0028299 1.8474884 0.00565979 2.79922485 0.00857544 C5.73347226 0.01972071 8.6674082 0.04481485 11.6015625 0.0703125 C13.59765182 0.08034961 15.59374596 0.08947418 17.58984375 0.09765625 C22.46886899 0.11964153 27.34766304 0.15413233 32.2265625 0.1953125 C32.7215625 2.1753125 32.7215625 2.1753125 33.2265625 4.1953125 C24.84037516 8.38840617 11.79274671 6.30557998 2.6015625 6.2578125 C0.91276174 6.25278727 -0.77604046 6.24822618 -2.46484375 6.24414062 C-6.56774461 6.23321649 -10.67057477 6.2160083 -14.7734375 6.1953125 C-15.1034375 4.8753125 -15.4334375 3.5553125 -15.7734375 2.1953125 C-10.41724371 -0.01919394 -5.68918841 -0.0661541 0 0 Z " fill="#76A8B0" transform="translate(39.7734375,78.8046875)"/>
<path d="M0 0 C1.32076538 0.1071936 1.32076538 0.1071936 2.66821289 0.21655273 C12.60863609 0.95914976 22.4728581 1.12092748 32.4375 1.0625 C33.95898287 1.05746574 35.48046739 1.0529063 37.00195312 1.04882812 C40.66800397 1.03799622 44.33399074 1.02084235 48 1 C48.38218767 2.65614657 48.71395102 4.32457024 49 6 C46.9924412 8.0075588 42.94729104 7.16398977 40.1953125 7.16796875 C39.40156219 7.17129715 38.60781189 7.17462555 37.79000854 7.17805481 C36.10024597 7.18313268 34.41047332 7.18546287 32.72070312 7.18530273 C30.17039603 7.18746157 27.62054133 7.20552974 25.0703125 7.22460938 C16.51524232 7.25327538 8.36079784 7.07783838 0 5 C0 3.35 0 1.7 0 0 Z " fill="#6B9FA8" transform="translate(28,124)"/>
<path d="M0 0 C4.53769782 0.3787153 9.08494519 0.17733764 13.6328125 0.0546875 C16.57421875 0.21484375 16.57421875 0.21484375 18.57421875 2.21484375 C18.57421875 3.20484375 18.57421875 4.19484375 18.57421875 5.21484375 C16.28790381 6.35800122 15.03074469 6.33597107 12.49169922 6.32836914 C11.23061844 6.32825584 11.23061844 6.32825584 9.94406128 6.32814026 C8.58149704 6.32039833 8.58149704 6.32039833 7.19140625 6.3125 C6.26200226 6.31108505 5.33259827 6.3096701 4.37503052 6.30821228 C1.39972751 6.30260428 -1.57550089 6.29005043 -4.55078125 6.27734375 C-6.56510308 6.27232978 -8.57942609 6.2677667 -10.59375 6.26367188 C-15.53778927 6.25263225 -20.4817726 6.23536224 -25.42578125 6.21484375 C-25.80796892 4.55869718 -26.13973227 2.89027351 -26.42578125 1.21484375 C-21.7032499 -3.5076876 -6.2015881 -0.81277546 0 0 Z " fill="#70A3AB" transform="translate(90.42578125,62.78515625)"/>
<path d="M0 0 C0.73114014 0.03029297 1.46228027 0.06058594 2.21557617 0.09179688 C5.53950819 0.22892061 8.86350238 0.36447613 12.1875 0.5 C13.91323242 0.57154297 13.91323242 0.57154297 15.67382812 0.64453125 C16.78564453 0.68964844 17.89746094 0.73476563 19.04296875 0.78125 C20.06414795 0.82314453 21.08532715 0.86503906 22.13745117 0.90820312 C24.76093783 0.9923337 27.37543111 1.0168647 30 1 C30.495 2.98 30.495 2.98 31 5 C22.45022304 10.69985131 5.81291245 6.4614976 -4 5 C-4 4.67 -4 4.34 -4 4 C1.445 3.505 1.445 3.505 7 3 C4.69 2.67 2.38 2.34 0 2 C0 1.34 0 0.68 0 0 Z " fill="#6CA0A8" transform="translate(74,49)"/>
<path d="M0 0 C1 3 1 3 0 6 C0.99 6.33 1.98 6.66 3 7 C1.24070761 12.27787716 -2.55998262 16.49684936 -7.2890625 19.41015625 C-11.20766631 21.23840117 -14.60024741 22.56771001 -19 22 C-19 20.68 -19 19.36 -19 18 C-17.82244141 17.55914062 -17.82244141 17.55914062 -16.62109375 17.109375 C-7.6960714 13.29844521 -4.01539984 8.73773627 0 0 Z " fill="#699EA6" transform="translate(45,150)"/>
<path d="M0 0 C0 1.65 0 3.3 0 5 C-0.96679688 5.06058594 -1.93359375 5.12117188 -2.9296875 5.18359375 C-10.30358562 5.65815155 -17.65389666 6.1876074 -25 7 C-25.33 5.68 -25.66 4.36 -26 3 C-17.40490715 -0.75058597 -9.19378855 -0.28499689 0 0 Z " fill="#6CA0A9" transform="translate(50,64)"/>
<path d="M0 0 C0.77279297 0.03963867 1.54558594 0.07927734 2.34179688 0.12011719 C3.60443359 0.18392578 3.60443359 0.18392578 4.89257812 0.24902344 C5.77300781 0.30445312 6.6534375 0.35988281 7.56054688 0.41699219 C8.44097656 0.45695312 9.32140625 0.49691406 10.22851562 0.53808594 C16.80423093 0.91067624 16.80423093 0.91067624 19.06054688 3.16699219 C19.06054688 4.48699219 19.06054688 5.80699219 19.06054688 7.16699219 C14.88697649 8.55818232 11.32349887 7.92928508 6.99804688 7.47949219 C6.16982422 7.41310547 5.34160156 7.34671875 4.48828125 7.27832031 C3.69615234 7.19646484 2.90402344 7.11460938 2.08789062 7.03027344 C1.36335693 6.96106689 0.63882324 6.89186035 -0.10766602 6.82055664 C-1.93945312 6.16699219 -1.93945312 6.16699219 -3.19116211 4.11303711 C-3.43809814 3.47084229 -3.68503418 2.82864746 -3.93945312 2.16699219 C-1.93945312 0.16699219 -1.93945312 0.16699219 0 0 Z " fill="#78A9B0" transform="translate(88.939453125,77.8330078125)"/>
<path d="M0 0 C0.66 0.66 1.32 1.32 2 2 C1.50113281 2.30550781 1.00226563 2.61101562 0.48828125 2.92578125 C-6.36141683 7.29138775 -12.41415663 12.42668462 -18.53759766 17.73291016 C-20.45454944 19.39384167 -22.38368253 21.04037595 -24.3125 22.6875 C-25.199375 23.450625 -26.08625 24.21375 -27 25 C-27.66 24.67 -28.32 24.34 -29 24 C-28.36191406 23.46890625 -27.72382812 22.9378125 -27.06640625 22.390625 C-26.24011719 21.68421875 -25.41382812 20.9778125 -24.5625 20.25 C-23.73878906 19.55390625 -22.91507812 18.8578125 -22.06640625 18.140625 C-19.97865649 15.9778899 -19.24232458 14.95760251 -19 12 C-19.33 11.34 -19.66 10.68 -20 10 C-18.44210317 8.86863414 -16.87846143 7.74517679 -15.3125 6.625 C-14.44238281 5.99851562 -13.57226562 5.37203125 -12.67578125 4.7265625 C-9.08183004 2.4075458 -6.30506903 1 -2 1 C-1.34 0.67 -0.68 0.34 0 0 Z " fill="#80AFB6" transform="translate(139,88)"/>
<path d="M0 0 C0.33 1.32 0.66 2.64 1 4 C-1.80497823 5.40248912 -4.18501365 5.16979056 -7.3125 5.1875 C-8.44300781 5.20167969 -9.57351562 5.21585937 -10.73828125 5.23046875 C-13.93204843 5.00480137 -16.1276429 4.36342654 -19 3 C-18.67 2.34 -18.34 1.68 -18 1 C-14.98046875 0.33203125 -14.98046875 0.33203125 -11.1875 -0.1875 C-9.94355469 -0.36667969 -8.69960937 -0.54585937 -7.41796875 -0.73046875 C-4.51386713 -0.95947791 -2.69932383 -0.95870192 0 0 Z " fill="#699EA6" transform="translate(108,64)"/>
<path d="M0 0 C0 0.66 0 1.32 0 2 C-1.32 2.33 -2.64 2.66 -4 3 C-1.36 3.33 1.28 3.66 4 4 C0.27933528 6.48044315 -2.86540474 6.44381173 -7.1875 6.625 C-7.93708984 6.66367188 -8.68667969 6.70234375 -9.45898438 6.7421875 C-11.30559199 6.83628216 -13.1527619 6.91922319 -15 7 C-15 6.34 -15 5.68 -15 5 C-13.68 4.67 -12.36 4.34 -11 4 C-13.64 3.67 -16.28 3.34 -19 3 C-16.17169743 0.17169743 -14.00502062 0.59470703 -10.0625 0.375 C-8.81597656 0.30023438 -7.56945312 0.22546875 -6.28515625 0.1484375 C-4.19165595 0.05384415 -2.09563628 0 0 0 Z " fill="#7CACB3" transform="translate(115,178)"/>
<path d="M0 0 C6.27 0 12.54 0 19 0 C19.33 1.32 19.66 2.64 20 4 C16.24986585 6.50008943 13.27488094 6.29601996 8.9375 6.25 C8.20466797 6.25773437 7.47183594 6.26546875 6.71679688 6.2734375 C1.25336982 6.25336982 1.25336982 6.25336982 -1 4 C5.27 4 11.54 4 18 4 C18 3.34 18 2.68 18 2 C12.06 2 6.12 2 0 2 C0 1.34 0 0.68 0 0 Z " fill="#83B1B8" transform="translate(85,50)"/>
<path d="M0 0 C0 3 0 3 -1.25 4.60644531 C-2.11625 5.45867676 -2.11625 5.45867676 -3 6.328125 C-3.63639404 6.96008789 -4.27278809 7.59205078 -4.9284668 8.24316406 C-5.95387573 9.23654785 -5.95387573 9.23654785 -7 10.25 C-7.68682861 10.92514648 -8.37365723 11.60029297 -9.08129883 12.29589844 C-14.79520931 17.88066954 -20.57499698 23.2407385 -27 28 C-23.37558954 19.54304227 -15.30870278 12.90739867 -8.05078125 7.5703125 C-5.07980755 5.2953955 -2.57615598 2.70826654 0 0 Z " fill="#80AFB6" transform="translate(116,101)"/>
<path d="M0 0 C1 3 1 3 0 6 C0.99 6.33 1.98 6.66 3 7 C1.92286118 10.23141645 0.69519557 11.68351037 -1.5625 14.1875 C-2.20316406 14.90292969 -2.84382813 15.61835938 -3.50390625 16.35546875 C-3.99761719 16.89816406 -4.49132813 17.44085938 -5 18 C-5.66 17.67 -6.32 17.34 -7 17 C-5.68 15.35 -4.36 13.7 -3 12 C-3.66 11.67 -4.32 11.34 -5 11 C-3.77472971 6.94718288 -2.30119506 3.55639236 0 0 Z " fill="#80AFB6" transform="translate(45,150)"/>
<path d="M0 0 C1.95901454 0.11382653 3.9172338 0.24141125 5.875 0.375 C6.96554688 0.44460937 8.05609375 0.51421875 9.1796875 0.5859375 C12 1 12 1 14 3 C11.36 3 8.72 3 6 3 C6 3.66 6 4.32 6 5 C2.37 4.67 -1.26 4.34 -5 4 C-4.67 3.34 -4.34 2.68 -4 2 C-2.68 2 -1.36 2 0 2 C0 1.34 0 0.68 0 0 Z " fill="#5C959E" transform="translate(115,178)"/>
<path d="M0 0 C2.97851562 0.53710938 2.97851562 0.53710938 5.95703125 1.07421875 C5.95703125 1.40421875 5.95703125 1.73421875 5.95703125 2.07421875 C3.97703125 2.40421875 1.99703125 2.73421875 -0.04296875 3.07421875 C1.27703125 4.06421875 2.59703125 5.05421875 3.95703125 6.07421875 C-2.64296875 5.74421875 -9.24296875 5.41421875 -16.04296875 5.07421875 C-16.04296875 4.74421875 -16.04296875 4.41421875 -16.04296875 4.07421875 C-15.28371094 4.03683594 -14.52445312 3.99945313 -13.7421875 3.9609375 C-12.74832031 3.89519531 -11.75445312 3.82945313 -10.73046875 3.76171875 C-9.74433594 3.70371094 -8.75820312 3.64570312 -7.7421875 3.5859375 C-4.27673499 2.92895591 -3.33990933 0.12133514 0 0 Z " fill="#7EAEB5" transform="translate(90.04296875,62.92578125)"/>
<path d="M0 0 C2.875 -0.125 2.875 -0.125 6 0 C6.66 0.66 7.32 1.32 8 2 C7.01 2.33 6.02 2.66 5 3 C5.66 3.33 6.32 3.66 7 4 C7 4.66 7 5.32 7 6 C4.69 5.67 2.38 5.34 0 5 C0 3.35 0 1.7 0 0 Z " fill="#76A8AF" transform="translate(28,124)"/>
<path d="M0 0 C3.61477175 1.49801352 5.68620463 3.57537417 8.25 6.5 C8.95640625 7.2940625 9.6628125 8.088125 10.390625 8.90625 C12 11 12 11 12 13 C10 13 10 13 8.30859375 11.35546875 C7.69113281 10.64003906 7.07367188 9.92460938 6.4375 9.1875 C5.81746094 8.47980469 5.19742188 7.77210937 4.55859375 7.04296875 C3 5 3 5 2 2 C1.34 2 0.68 2 0 2 C0 1.34 0 0.68 0 0 Z " fill="#C1DEE1" transform="translate(140,82)"/>
<path d="M0 0 C0.66 0.33 1.32 0.66 2 1 C1.01 2.485 1.01 2.485 0 4 C0 4.66 0 5.32 0 6 C-1.65 6 -3.3 6 -5 6 C-5 4.68 -5 3.36 -5 2 C-2.625 0.9375 -2.625 0.9375 0 0 Z " fill="#78A9B0" transform="translate(31,166)"/>
<path d="M0 0 C-0.66 0.66 -1.32 1.32 -2 2 C-2 2.99 -2 3.98 -2 5 C-3.32 4.67 -4.64 4.34 -6 4 C-6 2.68 -6 1.36 -6 0 C-3.50907189 -1.24546405 -2.58919267 -0.7767578 0 0 Z " fill="#7DADB4" transform="translate(30,51)"/>
<path d="M0 0 C1.65 0.33 3.3 0.66 5 1 C4.01 1.495 4.01 1.495 3 2 C3 2.66 3 3.32 3 4 C1.35 4.33 -0.3 4.66 -2 5 C-2 4.01 -2 3.02 -2 2 C-1.34 2 -0.68 2 0 2 C0 1.34 0 0.68 0 0 Z " fill="#5C959E" transform="translate(183,50)"/>
</svg>
