<?xml version="1.0" encoding="UTF-8"?>
<svg version="1.1" xmlns="http://www.w3.org/2000/svg" width="73" height="74">
<path d="M0 0 C4.10822619 1.48732166 6.87799809 4.98007069 9.91918945 8.01269531 C10.62495117 8.68171875 11.33071289 9.35074219 12.05786133 10.04003906 C12.71979492 10.69617187 13.38172852 11.35230469 14.0637207 12.02832031 C14.6719165 12.62418945 15.2801123 13.22005859 15.90673828 13.83398438 C17.10668945 15.76269531 17.10668945 15.76269531 16.88894653 18.12974548 C15.99771884 21.12947263 14.91390435 22.53934521 12.79052734 24.81860352 C12.08791275 25.57901443 11.38529816 26.33942535 10.66139221 27.12287903 C7.38283629 30.55404366 4.10198136 33.98145628 0.78466797 37.37524414 C-0.94883367 39.16473305 -2.66250773 40.97365994 -4.35498047 42.80200195 C-19.92584882 59.61805266 -19.92584882 59.61805266 -29.60487366 60.13188171 C-38.81449915 59.84150671 -38.81449915 59.84150671 -41.89331055 56.76269531 C-42.2293296 53.99722873 -42.40159471 51.40977451 -42.45581055 48.63769531 C-42.50543945 47.90292969 -42.55506836 47.16816406 -42.60620117 46.41113281 C-42.69080279 41.834588 -41.93310687 39.34753566 -38.80834961 35.95629883 C-38.1731691 35.26294434 -37.53798859 34.56958984 -36.88356018 33.85522461 C-33.79455938 30.60747892 -30.67322876 27.39969251 -27.4987793 24.23535156 C-26.82534988 23.56096542 -26.15192047 22.88657928 -25.45808411 22.1917572 C-24.05010615 20.78310463 -22.64088831 19.37569032 -21.23046875 17.96948242 C-19.0654745 15.80989759 -16.90593799 13.64495649 -14.74682617 11.47949219 C-13.37279818 10.10612412 -11.99846049 8.73306581 -10.6237793 7.36035156 C-9.97797409 6.71252213 -9.33216888 6.06469269 -8.66679382 5.39723206 C-8.06889542 4.80248581 -7.47099701 4.20773956 -6.85498047 3.5949707 C-6.32982346 3.07060928 -5.80466644 2.54624786 -5.26359558 2.0059967 C-3.44324883 0.3543406 -2.4827171 -0.31118002 0 0 Z M-3.94433594 13.58911133 C-4.58492447 14.20718155 -5.225513 14.82525177 -5.88551331 15.46205139 C-8.81137167 18.3171716 -11.73070011 21.17868659 -14.640625 24.05004883 C-16.17874469 25.56156811 -17.7239775 27.06588443 -19.27636719 28.56274414 C-21.51082678 30.71814154 -23.72149215 32.89561188 -25.9284668 35.07910156 C-26.62529068 35.7429335 -27.32211456 36.40676544 -28.04005432 37.0907135 C-32.21040344 41.20269381 -32.21040344 41.20269381 -33.32861328 46.74291992 C-33.18496338 47.7394458 -33.04131348 48.73597168 -32.89331055 49.76269531 C-29.32342758 50.27989398 -27.09045755 50.55882438 -24.02542114 48.52050781 C-21.99614875 46.67516512 -20.09721198 44.75291726 -18.2097168 42.76269531 C-17.50934799 42.05242188 -16.80897919 41.34214844 -16.08738708 40.61035156 C-13.85986586 38.34372645 -11.65794183 36.05396906 -9.45581055 33.76269531 C-7.94767115 32.21943775 -6.43792253 30.67775104 -4.92651367 29.13769531 C-1.2299305 25.36404009 2.44594317 21.5711075 6.10668945 17.76269531 C5.13102834 16.59309544 4.15106445 15.42708355 3.16918945 14.26269531 C2.62391602 13.61300781 2.07864258 12.96332031 1.5168457 12.29394531 C1.05149414 11.78863281 0.58614258 11.28332031 0.10668945 10.76269531 C-1.68275408 10.76269531 -2.71366373 12.39949983 -3.94433594 13.58911133 Z " fill="#6FB1BC" transform="translate(48.893310546875,0.2373046875)"/>
<path d="M0 0 C1.93220398 -0.01418472 1.93220398 -0.01418472 3.90344238 -0.02865601 C5.3060741 -0.02328615 6.708703 -0.01713316 8.11132812 -0.01025391 C9.55334622 -0.01227557 10.99536333 -0.01518778 12.43737793 -0.01895142 C15.45688631 -0.02337046 18.47612812 -0.01695752 21.49560547 -0.00292969 C25.36277231 0.01416231 29.22931451 0.00431883 33.09645844 -0.01364708 C36.07335095 -0.02449647 39.05009579 -0.02103335 42.0269928 -0.0132637 C43.45272394 -0.01126487 44.87846856 -0.01370986 46.30418396 -0.02070236 C48.29783872 -0.0283349 50.2915406 -0.01463556 52.28515625 0 C53.98581238 0.00358017 53.98581238 0.00358017 55.7208252 0.00723267 C58.922927 0.42473671 60.29601974 1.22746069 62.64257812 3.38818359 C61.89257813 8.13818359 61.89257813 8.13818359 59.64257812 10.38818359 C56.87867737 10.64215088 56.87867737 10.64215088 53.31274414 10.64697266 C52.33930054 10.65222961 52.33930054 10.65222961 51.34619141 10.65759277 C49.19618094 10.66641112 47.04649832 10.6605601 44.89648438 10.65380859 C43.40437252 10.65515538 41.9122611 10.65709603 40.42015076 10.65960693 C37.29039336 10.66255846 34.16075001 10.65826031 31.03100586 10.64892578 C27.01807589 10.63754101 23.00541373 10.64408422 18.99249363 10.65607071 C15.91015098 10.663297 12.82787183 10.66099769 9.74552727 10.65581512 C8.26593939 10.65448024 6.78634576 10.65612072 5.3067646 10.66077423 C3.23828997 10.66585107 1.17024897 10.65811293 -0.89819336 10.64697266 C-2.07574692 10.64538147 -3.25330048 10.64379028 -4.46653748 10.64215088 C-7.35742188 10.38818359 -7.35742188 10.38818359 -10.35742188 8.38818359 C-10.79492188 5.95068359 -10.79492188 5.95068359 -10.35742188 3.38818359 C-7.11413252 0.13317487 -4.48199166 0.00943535 0 0 Z " fill="#7BB8C2" transform="translate(10.357421875,63.61181640625)"/>
</svg>
