<?xml version="1.0" encoding="UTF-8"?>
<svg version="1.1" xmlns="http://www.w3.org/2000/svg" width="192" height="192">
<path d="M0 0 C1.19882813 -0.03867188 1.19882813 -0.03867188 2.421875 -0.078125 C11.56180458 0.98230882 16.30739493 5.64355187 22.45703125 12.0390625 C23.3042424 12.89809174 24.15145355 13.75712097 25.02433777 14.6421814 C27.71590417 17.37480877 30.3899643 20.12376829 33.0625 22.875 C35.75547738 25.63064943 38.45201409 28.38264176 41.15422058 31.12924194 C42.83185154 32.83612347 44.50368957 34.54872167 46.16914368 36.26748657 C46.92390488 37.03853729 47.67866608 37.80958801 48.45629883 38.60400391 C49.11833817 39.28556549 49.7803775 39.96712708 50.46247864 40.66934204 C52.26753935 42.47337024 52.26753935 42.47337024 55.25 43.25 C55.49363281 42.67765625 55.73726563 42.1053125 55.98828125 41.515625 C57.47517298 38.84566462 59.23083908 37.11170993 61.4375 35 C64.2526799 32.25174197 66.96037344 29.50427001 69.5 26.5 C86.8715247 6.46214826 86.8715247 6.46214826 97.70703125 4.89453125 C106.59227098 4.38953299 112.71120035 7.66559661 119.25 13.4375 C120.93212634 15.02544819 122.59880589 16.62991158 124.25 18.25 C125.06082031 19.04535156 125.87164062 19.84070313 126.70703125 20.66015625 C128.24271869 22.1856567 129.77049572 23.7191746 131.2890625 25.26171875 C132.81169927 26.80558751 134.36814836 28.31614146 135.9375 29.8125 C142.65721072 36.89543833 145.68691256 42.43142981 146.625 52.125 C146.16337523 63.42381587 138.88293469 70.76589691 131.25 78.25 C129.27620935 80.06107672 127.27569431 81.81181848 125.21875 83.52734375 C122.88713248 85.56750908 120.77384951 87.76877793 118.625 90 C115.34403799 93.33782443 112.61070292 95.57280657 108.25 97.25 C112.54335909 102.386105 117.04954988 107.17415454 121.8125 111.875 C122.45896484 112.51695313 123.10542969 113.15890625 123.77148438 113.8203125 C125.02607719 115.06597129 126.28157299 116.31072146 127.53808594 117.55444336 C141.83607368 131.71581313 141.83607368 131.71581313 142.3828125 142.98828125 C141.8939836 153.15304684 138.01058999 160.08027178 130.5625 166.875 C128.48860012 168.70438591 126.38032905 170.48680556 124.25 172.25 C123.35152344 172.99636719 122.45304688 173.74273437 121.52734375 174.51171875 C119.12688724 176.45953895 116.69537116 178.35907848 114.25 180.25 C113.18458984 181.11818359 113.18458984 181.11818359 112.09765625 182.00390625 C106.35460739 186.57850371 100.94793762 188.79553579 93.41796875 188.5625 C85.52151812 187.42427288 79.25927482 183.23330107 73.25 178.25 C72.26 177.46625 71.27 176.6825 70.25 175.875 C69.59 175.33875 68.93 174.8025 68.25 174.25 C68.58 172.93 68.91 171.61 69.25 170.25 C73.99374102 170.74747097 77.1380641 172.99422307 80.875 175.75 C87.6648608 180.68947081 92.80005991 182.40176117 101.25 181.25 C107.33488557 178.78434449 111.96566743 174.86435468 116.39453125 170.109375 C119.32065596 167.17709003 122.62267636 164.74349606 125.91796875 162.2421875 C130.94109703 157.95107289 134.64754042 152.76844683 135.5390625 146.08203125 C135.79929631 139.20949295 134.48586247 133.89508885 130.01866531 128.61026764 C129.12283108 127.646278 128.22699684 126.68228836 127.30401611 125.68908691 C126.81598865 125.16349764 126.32796118 124.63790837 125.82514501 124.09639215 C120.72661495 118.63467079 115.47833748 113.3227506 110.19824219 108.03710938 C109.14376664 106.97798749 108.08948181 105.91867568 107.03536987 104.85919189 C104.21165944 102.02254953 101.38478691 99.18908099 98.55684566 96.35665703 C96.7852113 94.58206684 95.01415489 92.80690177 93.24326324 91.03157043 C87.68675045 85.46144763 82.1282883 79.89328134 76.56691051 74.3280158 C70.1730988 67.92970724 63.78591677 61.52487498 57.4042995 55.1144042 C52.44710718 50.13558444 47.48415429 45.16255512 42.51680493 40.19386911 C39.55925239 37.23527144 36.6041519 34.27432225 33.65505219 31.30729675 C30.88724417 28.52298455 28.11233239 25.74595218 25.33188248 22.97426605 C24.31627264 21.95942471 23.30320019 20.94203637 22.29294205 19.92186737 C14.04124903 11.20359164 14.04124903 11.20359164 3.22265625 6.71875 C2.26230469 6.7290625 1.30195312 6.739375 0.3125 6.75 C-1.12416016 6.73453125 -1.12416016 6.73453125 -2.58984375 6.71875 C-11.75360246 8.25925826 -17.33820624 14.23694327 -23.58813477 20.62158203 C-25.06463176 22.12717377 -26.55906489 23.61306032 -28.05664062 25.09765625 C-34.04875574 31.12879305 -38.99539883 36.30231915 -39.81518936 45.18598938 C-39.60810194 51.74274372 -36.09681032 56.52365961 -31.56347656 60.98828125 C-31.04758972 61.50329193 -30.53170288 62.01830261 -30.00018311 62.54891968 C-28.30844959 64.23214113 -26.5998443 65.89705389 -24.890625 67.5625 C-23.69982033 68.74141535 -22.51020332 69.92153141 -21.32171631 71.1027832 C-18.19847066 74.2013641 -15.06096024 77.28507554 -11.91967773 80.36535645 C-7.50777212 84.69674465 -3.11538885 89.04794006 1.27886963 93.3972168 C3.61431224 95.70869457 5.95515813 98.01446775 8.30072021 100.31567383 C13.25299873 105.18623729 18.08658964 110.08300322 22.59503174 115.37414551 C25.81753214 119.0267484 29.35345905 122.3717741 32.84375 125.765625 C34.46672825 127.36138704 36.08910736 128.95775862 37.7109375 130.5546875 C40.24454711 133.04480167 42.78170768 135.53081924 45.32910156 138.00683594 C47.80367256 140.41516603 50.26232788 142.83880517 52.71875 145.265625 C53.87473694 146.37819672 53.87473694 146.37819672 55.05407715 147.51324463 C55.75230591 148.20786804 56.45053467 148.90249146 57.16992188 149.61816406 C57.79056519 150.22468811 58.4112085 150.83121216 59.05065918 151.45611572 C60.25 153.25 60.25 153.25 59.94250488 155.47698975 C59.71397827 156.06208313 59.48545166 156.64717651 59.25 157.25 C58.6725 157.085 58.095 156.92 57.5 156.75 C54.98335631 156.10537969 54.98335631 156.10537969 51.25 156.25 C48.71941883 158.14468544 48.71941883 158.14468544 46.1875 160.6875 C45.20666798 161.61825259 44.22353645 162.54658712 43.23828125 163.47265625 C42.74021973 163.94203613 42.2421582 164.41141602 41.72900391 164.89501953 C39.52815526 166.91131369 37.20747247 168.76380308 34.875 170.625 C29.99313584 174.54867593 25.41828553 178.72761996 20.92822266 183.08935547 C14.43067013 189.26502225 7.82557565 192.75659887 -1.26171875 192.578125 C-9.90644206 191.43816149 -15.61744844 185.82087876 -21.375 179.73046875 C-23.45535334 177.5577313 -25.572495 175.61674735 -27.875 173.6875 C-34.57234355 167.9003431 -40.63414831 162.06604873 -42.75 153.25 C-43.2140625 151.3628125 -43.2140625 151.3628125 -43.6875 149.4375 C-44.23643326 143.4926696 -42.09151392 137.37264787 -38.53881836 132.63476562 C-32.28475309 125.2474665 -25.17369334 118.565584 -18.3125 111.75 C-16.99520941 110.43773415 -15.67815014 109.12523605 -14.36132812 107.8125 C-11.1602139 104.62231494 -7.95598135 101.43529349 -4.75 98.25 C-6.12600735 95.14603974 -7.6924648 93.08132379 -10.12646484 90.72583008 C-10.81412933 90.05445511 -11.50179382 89.38308014 -12.21029663 88.69136047 C-12.95300812 87.97465683 -13.6957196 87.25795319 -14.4609375 86.51953125 C-16.03168579 84.97895982 -17.6019841 83.4379295 -19.171875 81.89648438 C-21.64419855 79.47979301 -24.12015723 77.06718684 -26.60449219 74.6628418 C-29.00554239 72.33476093 -31.39029809 69.99092484 -33.7734375 67.64453125 C-34.51210052 66.93794876 -35.25076355 66.23136627 -36.0118103 65.50337219 C-41.39838667 60.16983377 -44.94544839 54.79926606 -46.28125 47.24609375 C-46.13728413 35.45888777 -40.71508717 29.5049375 -32.75 21.25 C-32.25258301 20.72148437 -31.75516602 20.19296875 -31.24267578 19.6484375 C-12.96427188 0.24772494 -12.96427188 0.24772494 0 0 Z " fill="#659BA4" transform="translate(45.75,-0.25)"/>
<path d="M0 0 C2.31716195 1.23581971 3.97894373 2.38044821 6 4 C7.2684375 4.92619141 7.2684375 4.92619141 8.5625 5.87109375 C15.80149939 11.31062596 15.80149939 11.31062596 16.79296875 14.75390625 C16.89544922 15.86572266 16.89544922 15.86572266 17 17 C16.01 17.33 15.02 17.66 14 18 C11.66015625 16.453125 11.66015625 16.453125 9.0625 14.25 C8.20785156 13.53328125 7.35320312 12.8165625 6.47265625 12.078125 C4.9910657 10.83293357 3.53145429 9.55970341 2.12109375 8.234375 C-1.08740748 6.36718091 -3.35459314 6.54580521 -7 7 C-10.03422926 8.72924021 -10.03422926 8.72924021 -12.6875 11.1875 C-14.05455078 12.35345703 -14.05455078 12.35345703 -15.44921875 13.54296875 C-20.32172758 18.19655155 -20.32172758 18.19655155 -22.6875 24.3125 C-21.9787183 28.11414729 -21.54430903 28.87699221 -19.07226562 31.59594727 C-18.43546875 32.29696564 -17.79867187 32.99798401 -17.14257812 33.72024536 C-10.38428564 40.91123106 -3.43411611 47.91458014 3.51513672 54.92016602 C5.51333603 56.9362831 7.50263441 58.96061255 9.48486328 60.99243164 C12.35843408 63.93773973 15.25616392 66.85813674 18.15625 69.77734375 C19.03873413 70.68765854 19.92121826 71.59797333 20.83044434 72.53587341 C25.64065048 77.60852469 25.64065048 77.60852469 31.93164062 80.16625977 C39.19109147 79.77290473 44.35448623 73.09541713 49 68 C51.2803186 65.15646984 51.2803186 65.15646984 51.08447266 61.79760742 C49.57228545 56.50222876 46.60104135 53.93470549 42.6484375 50.23828125 C41.91501129 49.52520309 41.18158508 48.81212494 40.42593384 48.07743835 C38.08950261 45.80753266 35.73457146 43.5583253 33.375 41.3125 C31.00929467 39.05504681 28.64855361 36.7934521 26.30264282 34.51542664 C24.84440617 33.09966007 23.3745469 31.69575068 21.89242554 30.30500793 C21.23489288 29.66721909 20.57736023 29.02943024 19.89990234 28.37231445 C19.31445648 27.81606888 18.72901062 27.2598233 18.12582397 26.6867218 C17 25 17 25 17.3187561 22.78923035 C17.54356659 22.19878433 17.76837708 21.60833832 18 21 C21.8480291 21.52136634 23.82324563 22.32233724 26.56518555 25.06347656 C27.21903732 25.70794739 27.8728891 26.35241821 28.54655457 27.01641846 C29.23630875 27.71740662 29.92606293 28.41839478 30.63671875 29.140625 C31.35737015 29.85982117 32.07802155 30.57901733 32.82051086 31.32000732 C34.34066512 32.84182007 35.85587515 34.3685855 37.36645508 35.89990234 C39.67724797 38.23961964 42.00608834 40.56014729 44.33789062 42.87890625 C45.81361532 44.36086938 47.28826156 45.84390736 48.76171875 47.328125 C49.45754562 48.02101624 50.1533725 48.71390747 50.87028503 49.42779541 C55.16594527 53.80801073 57.94224882 56.93918733 58.0625 63.3125 C56.57414706 68.47796019 53.72229557 71.23067181 50 75 C49.18273437 75.87785156 48.36546875 76.75570312 47.5234375 77.66015625 C40.04532621 85.51104348 40.04532621 85.51104348 34 87 C26.01588032 87.14785407 21.98560743 81.86262892 16.57284546 76.67282104 C13.86010239 74.02477548 11.16716529 71.35806032 8.48046875 68.68359375 C7.99508448 68.20103685 7.5097002 67.71847996 7.00960732 67.22130013 C4.44879815 64.67535233 1.89077545 62.12664546 -0.66479492 59.57543945 C-3.29177777 56.95397162 -5.92793977 54.34193835 -8.56628895 51.73191738 C-10.60886143 49.70800552 -12.64465914 47.67738064 -14.67868614 45.64488411 C-15.64777786 44.6788036 -16.61935177 43.71520597 -17.5935154 42.75424004 C-18.95462001 41.41029269 -20.30528221 40.05579478 -21.65551758 38.70092773 C-22.42414627 37.93594467 -23.19277496 37.17096161 -23.98469543 36.38279724 C-27.12543464 32.6693413 -28.8560484 29.34354827 -29.375 24.5 C-28.43478922 15.72469937 -22.45563654 11.25633106 -16 6 C-6.80855175 -1.28463241 -6.80855175 -1.28463241 0 0 Z " fill="#6B9FA8" transform="translate(79,50)"/>
<path d="M0 0 C2.46324069 3.69486103 2.38991688 5.63293092 2 10 C0.9375 12 0.9375 12 -1 13 C-4.5 13 -4.5 13 -8 12 C-10.35535891 9.35022123 -11.02190076 7.919832 -10.9375 4.375 C-8.76714486 -1.12323302 -5.37405729 -1.63558265 0 0 Z " fill="#6DA1A9" transform="translate(83,63)"/>
<path d="M0 0 C1 1 1 1 1.375 4.875 C1.32769601 8.16262733 1.30584344 8.69415656 -1.125 11.125 C-4 12 -4 12 -7.1875 11.5625 C-10 10 -10 10 -11.5625 7.125 C-12 4 -12 4 -10.8125 1.6875 C-7.28224094 -1.59929292 -4.432227 -0.96352761 0 0 Z " fill="#6CA0A8" transform="translate(112,113)"/>
<path d="M0 0 C2.9375 1 2.9375 1 4.875 3.25 C6.09880892 6.41750544 6.05267424 7.82604256 4.9375 11 C4.2775 11.66 3.6175 12.32 2.9375 13 C-0.10057025 12.80608062 -2.3071341 12.4948949 -4.875 10.8125 C-6.5153699 8.30877752 -6.73571963 5.9410233 -7.0625 3 C-4.58943995 0.62205764 -3.49262016 0 0 0 Z " fill="#6CA0A9" transform="translate(92.0625,74)"/>
<path d="M0 0 C2.25 0.4375 2.25 0.4375 4.25 2.4375 C4.80021834 8.48990175 4.80021834 8.48990175 3.125 11.375 C0.36019567 12.94172245 -1.63188517 12.82726435 -4.75 12.4375 C-7.00738505 10.88068272 -7.61684202 9.86118447 -8.4375 7.25 C-8.540625 6.651875 -8.64375 6.05375 -8.75 5.4375 C-3.50394106 0.55744517 -3.50394106 0.55744517 0 0 Z " fill="#6A9FA7" transform="translate(105.75,86.5625)"/>
<path d="M0 0 C2 2 2 2 2.4375 5.4375 C2 9 2 9 -0.125 11.0625 C-3 12 -3 12 -6.1875 11.5625 C-9 10 -9 10 -10.375 6.875 C-10.58125 5.92625 -10.7875 4.9775 -11 4 C-7.30497796 0.5223322 -5.10500447 -0.68066726 0 0 Z " fill="#6B9FA8" transform="translate(85,86)"/>
<path d="M0 0 C2 2 2 2 2.375 4.9375 C2 8 2 8 0.4375 9.9375 C-3.05130737 11.45826219 -5.36904394 10.94135898 -9 10 C-11 7 -11 7 -10.8125 4.4375 C-9.03766458 -0.88700625 -4.83826718 -0.35187398 0 0 Z " fill="#6CA0A9" transform="translate(98,99)"/>
<path d="M0 0 C8.91670637 0.7278944 13.91978685 4.62415039 19.9609375 10.921875 C21.91805192 12.91648203 23.9416391 14.74461923 26.0625 16.5625 C29.90032831 19.86075245 33.47299715 23.3738002 37 27 C36.67 27.66 36.34 28.32 36 29 C35.21238281 28.24976562 34.42476562 27.49953125 33.61328125 26.7265625 C18.54081779 12.17096919 18.54081779 12.17096919 0 3 C0 2.01 0 1.02 0 0 Z " fill="#D3EBEE" transform="translate(145,10)"/>
<path d="M0 0 C2.3125 1.5625 2.3125 1.5625 4 4 C4.25 7.75 4.25 7.75 4 11 C2.35 11.66 0.7 12.32 -1 13 C-6.69180566 8.76142132 -6.69180566 8.76142132 -8.0625 5.375 C-8 3 -8 3 -6.875 1.1875 C-4.33058007 -0.42396595 -2.96370298 -0.50599807 0 0 Z " fill="#6BA0A8" transform="translate(119,101)"/>
<path d="M0 0 C1.051875 0.14695312 1.051875 0.14695312 2.125 0.296875 C3.176875 0.42835937 3.176875 0.42835937 4.25 0.5625 C6.125 1.046875 6.125 1.046875 8.125 3.046875 C8.375 6.046875 8.375 6.046875 8.125 9.046875 C7.465 9.706875 6.805 10.366875 6.125 11.046875 C2.20999906 10.90187497 -0.17766015 10.55244639 -3.375 8.234375 C-4.875 6.046875 -4.875 6.046875 -4.75 3.921875 C-3.61211786 1.48355612 -2.82642879 0.07066072 0 0 Z " fill="#6DA1A9" transform="translate(66.875,74.953125)"/>
<path d="M0 0 C0.639375 0.66 1.27875 1.32 1.9375 2 C6.41639073 6.47889073 11.10916059 10.94715692 16.27734375 14.6171875 C16.84582031 15.07351562 17.41429688 15.52984375 18 16 C18 16.66 18 17.32 18 18 C17.01 18.33 16.02 18.66 15 19 C8.90090423 14.02584856 3.71542693 9.02288541 0 2 C0 1.34 0 0.68 0 0 Z " fill="#D3EBED" transform="translate(9,153)"/>
<path d="M0 0 C0.8353125 1.0828125 0.8353125 1.0828125 1.6875 2.1875 C3.94426304 5.04815328 3.94426304 5.04815328 6.625 7.5 C8.97485987 9.97353671 9.98828861 11.78091832 11 15 C6.11950075 11.0580583 1.9419417 6.88049925 -2 2 C-1.34 1.34 -0.68 0.68 0 0 Z " fill="#D7EDF0" transform="translate(105,45)"/>
<path d="M0 0 C0.99 0.33 1.98 0.66 3 1 C-0.3618226 5.25171681 -3.74828319 8.6381774 -8 12 C-8.66 11.67 -9.32 11.34 -10 11 C-8.89718873 9.72799029 -7.79269231 8.45744147 -6.6875 7.1875 C-6.07261719 6.47980469 -5.45773438 5.77210938 -4.82421875 5.04296875 C-3.26665665 3.29863261 -1.67341125 1.63221959 0 0 Z " fill="#D0E9EC" transform="translate(88,152)"/>
<path d="M0 0 C2.5 1.75 2.5 1.75 5 4 C5 5.32 5 6.64 5 8 C1.62496331 6.8141763 -0.64722731 5.72426311 -3 3 C-2.01 2.01 -1.02 1.02 0 0 Z " fill="#D8EEF1" transform="translate(46,101)"/>
<path d="M0 0 C0.66 0.33 1.32 0.66 2 1 C0.75965588 2.32162881 -0.49268626 3.63200453 -1.75 4.9375 C-2.44609375 5.66839844 -3.1421875 6.39929688 -3.859375 7.15234375 C-6.00599725 9.00517646 -7.23532932 9.60771565 -10 10 C-8.5741914 6.54804233 -6.90253666 4.8985744 -3.875 2.75 C-3.15054688 2.22921875 -2.42609375 1.7084375 -1.6796875 1.171875 C-1.12539062 0.78515625 -0.57109375 0.3984375 0 0 Z " fill="#C8E3E6" transform="translate(173,71)"/>
<path d="M0 0 C0.33 0 0.66 0 1 0 C0.56568635 5.42892065 -0.62768839 8.70796704 -4 13 C-4.99 13.495 -4.99 13.495 -6 14 C-2.99633316 4.22210581 -2.99633316 4.22210581 0 0 Z " fill="#D0E9EC" transform="translate(185,53)"/>
<path d="M0 0 C3.62613199 0.56959153 5.25517741 1.92374534 7.75 4.5625 C8.36359375 5.20316406 8.9771875 5.84382812 9.609375 6.50390625 C10.06828125 6.99761719 10.5271875 7.49132812 11 8 C10.01 8.495 10.01 8.495 9 9 C7.68412059 7.87895467 6.37239647 6.75303035 5.0625 5.625 C4.33160156 4.99851563 3.60070312 4.37203125 2.84765625 3.7265625 C1 2 1 2 0 0 Z " fill="#D0E9EC" transform="translate(75,132)"/>
<path d="M0 0 C3.66666667 3.66666667 7.33333333 7.33333333 11 11 C10.67 11.66 10.34 12.32 10 13 C6.37 9.37 2.74 5.74 -1 2 C-0.67 1.34 -0.34 0.68 0 0 Z " fill="#C5E0E4" transform="translate(133,75)"/>
<path d="M0 0 C0.33 0.99 0.66 1.98 1 3 C-1.64 5.64 -4.28 8.28 -7 11 C-7.66 10.67 -8.32 10.34 -9 10 C-6.03 6.7 -3.06 3.4 0 0 Z " fill="#BDDBDF" transform="translate(124,24)"/>
<path d="M0 0 C1.45880109 0.14107747 2.91703551 0.28802415 4.375 0.4375 C5.59316406 0.55931641 5.59316406 0.55931641 6.8359375 0.68359375 C9 1 9 1 11 2 C11 2.66 11 3.32 11 4 C6.35108046 4.32434322 3.77593392 3.776422 0 1 C0 0.67 0 0.34 0 0 Z " fill="#CCE5E9" transform="translate(36,182)"/>
<path d="M0 0 C0.99 0.33 1.98 0.66 3 1 C2.67 1.99 2.34 2.98 2 4 C-0.5625 5.1875 -0.5625 5.1875 -3 6 C-1.125 1.125 -1.125 1.125 0 0 Z " fill="#D3EBEE" transform="translate(14,132)"/>
</svg>
