<?xml version="1.0" encoding="UTF-8"?>
<svg version="1.1" xmlns="http://www.w3.org/2000/svg" width="110" height="110">
<path d="M0 0 C0.75055664 -0.00350464 1.50111328 -0.00700928 2.27441406 -0.01062012 C4.73512243 -0.01936343 7.19553912 -0.01361465 9.65625 -0.00683594 C11.37825576 -0.00818472 13.10026116 -0.01012702 14.82226562 -0.01263428 C18.42321413 -0.01557552 22.0240631 -0.01132015 25.625 -0.00195312 C30.22814864 0.00944081 34.83106401 0.00287597 39.4342041 -0.00909805 C42.98764791 -0.0163437 46.54103691 -0.01401632 50.09448242 -0.00884247 C51.79126005 -0.00751345 53.48804274 -0.00912734 55.18481445 -0.01380157 C57.56084271 -0.01891142 59.93649925 -0.01109446 62.3125 0 C63.35229004 -0.00607269 63.35229004 -0.00607269 64.41308594 -0.01226807 C71.40717212 0.04787764 77.06775755 1.31164362 82.15625 6.25878906 C86.16694615 11.84511584 86.3068169 17.25791229 86.31738281 23.95141602 C86.32483017 25.08903381 86.32483017 25.08903381 86.33242798 26.24963379 C86.3469854 28.74878866 86.35384078 31.24788007 86.359375 33.74707031 C86.36513165 35.49195862 86.37088931 37.23684693 86.37664795 38.98173523 C86.38713962 42.63748467 86.3929943 46.29321224 86.39648438 49.94897461 C86.40196584 54.61938956 86.42599418 59.28951253 86.45445633 63.95983601 C86.4731354 67.56392751 86.4782911 71.16794939 86.47982025 74.77208519 C86.48283531 76.49317204 86.49082488 78.21425799 86.50400543 79.93529701 C86.52117706 82.34974649 86.51915899 84.76349173 86.51269531 87.17797852 C86.5219101 87.88006943 86.53112488 88.58216034 86.5406189 89.30552673 C86.49182296 95.16271615 85.26373963 100.73459125 81.4375 105.31738281 C80.8496875 105.77242188 80.261875 106.22746094 79.65625 106.69628906 C79.0684375 107.169375 78.480625 107.64246094 77.875 108.12988281 C73.88573916 110.75010186 69.7234206 110.42635019 65.13989258 110.45166016 C64.32325134 110.45983765 63.50661011 110.46801514 62.66522217 110.47644043 C59.96041593 110.50126782 57.25566217 110.51780536 54.55078125 110.53222656 C53.62574987 110.53755024 52.7007185 110.54287392 51.74765587 110.54835892 C46.84960128 110.57508143 41.95157207 110.59445753 37.0534668 110.60888672 C33.00571038 110.62221614 28.95845924 110.65005158 24.91088867 110.69091797 C20.01849376 110.74031187 15.12655656 110.76501628 10.23392296 110.7721138 C8.37324719 110.77881452 6.51258117 110.79400582 4.65204811 110.81800461 C2.04068922 110.8497612 -0.56891722 110.8496774 -3.18041992 110.84228516 C-3.94175735 110.85869049 -4.70309479 110.87509583 -5.48750305 110.89199829 C-11.29222624 110.82510699 -15.52604567 109.20528444 -19.84375 105.25878906 C-23.72302954 100.13131669 -24.42655567 95.00312984 -24.34545898 88.73486328 C-24.35086197 87.9240329 -24.35626495 87.11320251 -24.36183167 86.27780151 C-24.37424393 83.62264448 -24.35788166 80.96858762 -24.33984375 78.31347656 C-24.33999888 76.4559829 -24.34149023 74.59848892 -24.34425354 72.74099731 C-24.34563407 68.85924874 -24.33313526 64.97787123 -24.31030273 61.09619141 C-24.28187947 56.12853812 -24.28467085 51.16149899 -24.29739285 46.19379997 C-24.30435643 42.36242452 -24.29655362 38.53119033 -24.28413582 34.69983292 C-24.27963073 32.8682624 -24.27927626 31.03667668 -24.28320122 29.20510483 C-24.28612115 26.64439676 -24.26957096 24.08452764 -24.24780273 21.52392578 C-24.25230438 20.77260376 -24.25680603 20.02128174 -24.26144409 19.24719238 C-24.17200501 12.89478972 -22.56655403 8.9815931 -18.09375 4.50878906 C-12.42911202 0.58711661 -6.7460681 -0.03939911 0 0 Z M-11.80351257 14.32395935 C-13.06653421 17.88733184 -13.25706907 21.09898771 -13.21606445 24.83129883 C-13.21971512 25.57662872 -13.22336578 26.32195862 -13.22712708 27.08987427 C-13.23520632 29.54354932 -13.22164604 31.99655856 -13.20703125 34.45019531 C-13.20651238 36.15982564 -13.20703112 37.86945657 -13.20854187 39.5790863 C-13.20845227 43.15755144 -13.19804642 46.73579072 -13.17993164 50.31420898 C-13.15722772 54.89979032 -13.15670477 59.48504231 -13.16344929 64.07066441 C-13.16679118 67.59912541 -13.1601553 71.1275114 -13.15032005 74.65595818 C-13.14647286 76.34683782 -13.14531785 78.03772581 -13.1469059 79.72860909 C-13.14727694 82.09112574 -13.13464637 84.45322058 -13.1184082 86.81567383 C-13.12088562 87.51344437 -13.12336304 88.2112149 -13.12591553 88.93013 C-13.08683501 92.49442889 -12.9924289 95.32621034 -10.84375 98.25878906 C-7.30257437 99.43918094 -4.09175403 99.41413826 -0.40649414 99.41992188 C0.72569298 99.42736923 0.72569298 99.42736923 1.88075256 99.43496704 C4.37754223 99.44957186 6.87426839 99.45638714 9.37109375 99.46191406 C11.10600283 99.46766602 12.84091188 99.47342374 14.57582092 99.47918701 C18.21322933 99.4896916 21.85061567 99.49553811 25.48803711 99.49902344 C30.14993553 99.50451317 34.81154262 99.52855358 39.47334957 99.55699539 C43.05669511 99.57561201 46.63997025 99.5808268 50.22336006 99.58235931 C51.9421708 99.58538757 53.66098026 99.59342194 55.37974358 99.60654449 C57.78325528 99.62358812 60.18605209 99.62172937 62.58959961 99.61523438 C63.65499466 99.62905655 63.65499466 99.62905655 64.74191284 99.64315796 C67.63236761 99.61867402 69.92860757 99.3556847 72.59780884 98.21954346 C74.97623081 95.22712933 74.70564691 92.18980052 74.65795898 88.53027344 C74.66336197 87.74461502 74.66876495 86.9589566 74.67433167 86.14949036 C74.68684835 83.55012444 74.67030918 80.95185981 74.65234375 78.35253906 C74.65249867 76.54797304 74.65398649 74.74340668 74.65675354 72.93884277 C74.65813885 69.15585634 74.64555764 65.37324843 74.62280273 61.59033203 C74.59441762 56.73769795 74.59715362 51.88569302 74.60989285 47.03301239 C74.61684303 43.30640272 74.60906833 39.57993884 74.59663582 35.85334778 C74.59211488 34.06395527 74.59179011 32.27454714 74.59570122 30.4851532 C74.598607 27.98554322 74.58213754 25.48680464 74.56030273 22.98730469 C74.56480438 22.24539383 74.56930603 21.50348297 74.57394409 20.73908997 C74.53381595 17.97869406 74.42558739 15.76447442 73.11402893 13.30200195 C70.01126643 11.64867849 66.85880552 11.8253142 63.42773438 11.83886719 C62.24924675 11.82616287 62.24924675 11.82616287 61.04695129 11.8132019 C58.44780328 11.78978658 55.84924554 11.78881069 53.25 11.79003906 C51.44543214 11.78294088 49.64086656 11.77524239 47.83630371 11.76696777 C44.05340297 11.75351305 40.27071096 11.75195892 36.48779297 11.7578125 C31.63495574 11.7637136 26.78311724 11.73310522 21.93047333 11.69269562 C18.20386336 11.66687532 14.47749581 11.66393594 10.75080872 11.66758728 C8.96138496 11.66589111 7.17195058 11.65620096 5.38261414 11.63844299 C2.88264631 11.61636097 0.3847251 11.62589777 -2.11523438 11.64355469 C-2.85714523 11.63029144 -3.59905609 11.6170282 -4.3634491 11.60336304 C-7.76770046 11.65936717 -9.41520517 11.80719454 -11.80351257 14.32395935 Z " fill="#6FB1BD" transform="translate(23.84375,-0.2587890625)"/>
<path d="M0 0 C4.6722712 3.43403679 6.84038474 6.94935929 8.875 12.375 C9.6451829 18.53646316 9.03716724 22.30064438 5.90234375 27.578125 C4.81255194 29.549165 4.81255194 29.549165 6.125 32.375 C7.82411801 33.9822242 7.82411801 33.9822242 9.875 35.5625 C16.70476537 41.42532726 19.44756557 47.06467575 21.15625 55.859375 C21.11693842 59.02395719 20.35333077 60.17199117 18.125 62.375 C15.125 62.8125 15.125 62.8125 12.125 62.375 C9.226003 60.15479254 8.57457711 58.04821231 7.75 54.5625 C6.37830948 49.77899043 4.92170536 46.76780054 1.125 43.375 C-4.32266652 40.415317 -9.63247479 38.46699633 -15.875 39.375 C-21.53790586 41.21029185 -26.29566384 43.50312578 -29.875 48.375 C-31.74831813 52.64056095 -33.35964042 56.97078472 -34.875 61.375 C-41.24926409 62.69796047 -41.24926409 62.69796047 -43.8125 61.375 C-45.5138909 58.17238184 -45.28106192 55.97154846 -44.875 52.375 C-42.0616076 43.52155611 -36.97766034 36.00509162 -28.875 31.375 C-29.16375 30.7459375 -29.4525 30.116875 -29.75 29.46875 C-33.01069246 21.95104238 -34.34697768 16.57308182 -31.25 8.6875 C-28.53886668 3.17991797 -24.68000351 0.00871126 -19.125 -2.5 C-12.27833094 -4.75614047 -6.09304039 -3.73186217 0 0 Z M-20.875 13.375 C-22.10545898 17.06637694 -22.24648809 18.596644 -20.5625 22.125 C-18.4823842 24.89848773 -17.49451007 26.19196293 -14.125 27.1875 C-10.12815332 27.41808731 -8.22348255 26.50585253 -4.875 24.375 C-2.40748761 20.67373141 -2.56778844 18.75276468 -2.875 14.375 C-4.06267855 10.99468411 -4.77325225 10.44283183 -7.875 8.375 C-14.1368616 7.66801563 -16.98509758 7.95271178 -20.875 13.375 Z " fill="#6EB0BC" transform="translate(66.875,25.625)"/>
</svg>
