<?xml version="1.0" encoding="UTF-8"?>
<svg version="1.1" xmlns="http://www.w3.org/2000/svg" width="192" height="192">
<path d="M0 0 C2.5 0.25 2.5 0.25 4.5 2.25 C5.19748583 3.56747324 5.86959957 4.89914193 6.5 6.25 C7.655 5.92 8.81 5.59 10 5.25 C20.63048167 2.91196685 32.94693679 2.67284369 42.453125 8.43359375 C48.76364578 13.11345475 50.80959113 19.25706205 52.11328125 26.796875 C52.60658683 30.40422843 52.95262484 34.01978941 53.26904297 37.64648438 C53.52228736 40.50123934 53.81059113 43.35158116 54.09765625 46.203125 C55.35847227 59.37732418 55.63864383 72.07074515 54.5 85.25 C54.44328125 86.03487793 54.3865625 86.81975586 54.328125 87.62841797 C53.28505225 101.9973377 50.64726377 118.90268706 39.4453125 129.125 C37.5093622 130.60000975 35.55724593 131.95161024 33.5 133.25 C32.51 133.91 31.52 134.57 30.5 135.25 C30.7165625 136.43529297 30.7165625 136.43529297 30.9375 137.64453125 C33.53809743 153.44677257 34.60386426 168.26304433 26.625 182.625 C22.66320902 187.51897709 18.71868768 190.88188871 12.5 192.25 C4.28152787 193.08577683 -2.87001072 190.62345453 -9.75 186.125 C-19.21457987 176.23021195 -24.89165999 163.59683238 -30.09326172 151.08300781 C-36.10865874 136.68641274 -46.48467117 118.49554406 -61.5 112.25 C-67.10431448 111.48359802 -72.12018244 113.36766625 -76.703125 116.5390625 C-80.62259194 120.27107667 -83.03769007 125.1535986 -83.8359375 130.5 C-83.90575818 134.18653167 -83.25354385 137.66140185 -82.5 141.25 C-81.67757812 141.27578125 -80.85515625 141.3015625 -80.0078125 141.328125 C-71.0435804 141.78358252 -64.23901166 143.48557653 -56.5 148 C-51.27311867 153.8802415 -52.23610217 162.24853039 -52.13671875 169.6640625 C-52.78949175 176.10756373 -55.60858696 180.1213395 -60.5 184.25 C-68.09463454 188.08904603 -76.14365706 190.93892223 -84.5 188.25 C-92.65792617 184.71988822 -99.51255686 178.90271104 -103.6953125 170.98828125 C-105.75383598 165.67506524 -106.08234152 160.73935762 -104.5 155.25 C-101.98589075 149.57767087 -97.89007908 144.43340241 -92.5 141.25 C-91.18 141.25 -89.86 141.25 -88.5 141.25 C-88.850625 140.280625 -89.20125 139.31125 -89.5625 138.3125 C-91.4463825 131.59015668 -90.13224348 125.20102959 -86.7890625 119.1640625 C-82.78028191 113.21163071 -77.46063827 108.3345344 -70.5 106.25 C-64.56948153 105.23961537 -59.9353283 105.51799146 -54.8125 108.8125 C-53.35311523 109.93032663 -51.91479345 111.07624544 -50.5 112.25 C-49.84515625 112.745 -49.1903125 113.24 -48.515625 113.75 C-36.15459149 123.6388268 -27.53506125 138.44840851 -22.125 153.0625 C-17.77959783 164.76412656 -12.06992281 178.74185455 -0.13671875 184.36328125 C5.53822891 186.27174513 11.41866451 186.175038 16.875 183.75 C24.11691863 176.85293464 26.49734462 169.07383561 26.75 159.25 C26.63775259 152.68352642 25.77011333 146.1865162 24.9375 139.6796875 C24.5 136.25 24.5 136.25 24.5 135.25 C22.95892578 135.10304687 22.95892578 135.10304687 21.38671875 134.953125 C0.20380724 132.75303566 -13.14009149 123.58603668 -26.7578125 107.48681641 C-31.58581951 101.28807759 -35.08681745 94.295483 -38.5 87.25 C-39.04785156 86.14140625 -39.59570312 85.0328125 -40.16015625 83.890625 C-41.67692368 80.70339104 -43.10122978 77.49078711 -44.5 74.25 C-44.82242676 73.51072266 -45.14485352 72.77144531 -45.47705078 72.00976562 C-57.37314123 44.67126519 -57.37314123 44.67126519 -55.5 36.25 C-52.48116018 30.57931657 -46.95675981 27.28088236 -41.671875 23.92578125 C-37.64493631 20.81866488 -37.10217615 16.91731819 -36.16015625 12.15234375 C-35.33612244 9.77776112 -34.52490151 8.74251168 -32.5 7.25 C-27.57997192 6.3243676 -23.60361633 6.54368555 -19.375 9.25 C-18.75625 9.91 -18.1375 10.57 -17.5 11.25 C-18.00230994 15.53837741 -19.23578646 17.50890929 -22.3125 20.5 C-22.99957031 21.18578125 -23.68664062 21.8715625 -24.39453125 22.578125 C-26.52855137 24.27267159 -27.79061023 25.04551775 -30.5 25.25 C-31.49 24.26 -31.49 24.26 -32.5 23.25 C-33.11875 24.095625 -33.7375 24.94125 -34.375 25.8125 C-37.46805229 29.56516574 -41.2705258 32.0567668 -45.29296875 34.734375 C-47.57307092 36.20133329 -47.57307092 36.20133329 -49.5 38.25 C-47.32399002 65.83511112 -28.75849256 98.96703661 -8.5 117.25 C1.14621569 125.10090819 12.67769989 128.92123621 25.1171875 128.55078125 C30.16042821 127.91417546 33.78149766 126.16740307 37.1875 122.3671875 C53.160945 100.08423172 49.57629505 65.81953864 47.1875 39.9375 C47.12864624 39.26615021 47.06979248 38.59480042 47.00915527 37.90310669 C46.17982877 25.54601579 46.17982877 25.54601579 40.4375 14.9375 C32.92703155 10.62297557 24.45674071 8.73089302 15.97265625 10.89453125 C11.92208386 12.00655297 11.92208386 12.00655297 8.5 14.25 C6.829375 14.435625 6.829375 14.435625 5.125 14.625 C1.55606642 14.88156351 1.55606642 14.88156351 -0.125 16.875 C-0.57875 17.32875 -1.0325 17.7825 -1.5 18.25 C-4.0625 18.125 -4.0625 18.125 -6.5 17.25 C-8.85620437 13.71569344 -8.98991613 12.41428713 -8.5 8.25 C-3.96938776 0.39693878 -3.96938776 0.39693878 0 0 Z M-1.5 6.25 C-2.16 7.9 -2.82 9.55 -3.5 11.25 C-2.18 10.92 -0.86 10.59 0.5 10.25 C0.17 8.93 -0.16 7.61 -0.5 6.25 C-0.83 6.25 -1.16 6.25 -1.5 6.25 Z M-30.5 12.25 C-31.85439668 14.95879335 -31.56501451 17.25933268 -31.5 20.25 C-27.96399535 18.33864614 -25.71027154 16.62357234 -23.5 13.25 C-24.62534105 11.89381501 -24.62534105 11.89381501 -27.5625 12.1875 C-28.531875 12.208125 -29.50125 12.22875 -30.5 12.25 Z " fill="#6A9FA7" transform="translate(120.5,-0.25)"/>
</svg>
