<?xml version="1.0" encoding="UTF-8"?>
<svg version="1.1" xmlns="http://www.w3.org/2000/svg" width="72" height="72">
<path d="M0 0 C0.75990234 -0.02900391 1.51980469 -0.05800781 2.30273438 -0.08789062 C6.29027719 -0.13292803 8.21520488 0.0122862 11.66796875 2.20703125 C15.42612316 6.12510712 14.77178089 9.08708477 14.6875 14.3125 C15.24735596 14.28631592 15.80721191 14.26013184 16.3840332 14.2331543 C18.92240294 14.12917669 21.46032553 14.0641795 24 14 C25.32161133 13.9371582 25.32161133 13.9371582 26.66992188 13.87304688 C29.10744228 13.82670618 31.29720257 13.82638656 33.6875 14.3125 C35.79296875 16.83203125 35.79296875 16.83203125 36.6875 19.3125 C35.6975 20.7975 35.6975 20.7975 34.6875 22.3125 C31.5625 22.5 31.5625 22.5 28.6875 22.3125 C28.71368408 23.58367676 28.73986816 24.85485352 28.7668457 26.16455078 C28.85755196 30.89435122 28.91482374 35.62407524 28.9621582 40.35449219 C28.98725583 42.39922019 29.02134164 44.44385889 29.06469727 46.48828125 C29.12555815 49.43251611 29.1537573 52.37556196 29.17578125 55.3203125 C29.20158768 56.2299173 29.2273941 57.13952209 29.25398254 58.07669067 C29.25588875 62.4197466 29.10033562 65.39480057 26.34448242 68.87451172 C23.10242857 71.8493486 20.9072404 72.4326171 16.66259766 72.47363281 C15.85811188 72.48324036 15.0536261 72.4928479 14.22476196 72.50274658 C13.35910614 72.50699646 12.49345032 72.51124634 11.6015625 72.515625 C10.26066055 72.52417511 10.26066055 72.52417511 8.89266968 72.53289795 C7.00137514 72.54234256 5.11006419 72.54887979 3.21875 72.55273438 C0.33043625 72.56243973 -2.55716574 72.59346786 -5.4453125 72.625 C-7.28384995 72.63153036 -9.12239248 72.6367807 -10.9609375 72.640625 C-11.82254486 72.6529718 -12.68415222 72.6653186 -13.5718689 72.67803955 C-19.44682571 72.65629369 -22.61979688 71.67653871 -27.10668945 67.73730469 C-29.06421498 63.80085125 -28.67835819 59.84613501 -28.60546875 55.515625 C-28.60122391 54.56685486 -28.59697906 53.61808472 -28.59260559 52.64056396 C-28.57583082 49.61425234 -28.53818056 46.5886099 -28.5 43.5625 C-28.48495162 41.50912421 -28.47126348 39.45573797 -28.45898438 37.40234375 C-28.42593117 32.37213852 -28.37415683 27.34243267 -28.3125 22.3125 C-29.09625 22.35375 -29.88 22.395 -30.6875 22.4375 C-33.3125 22.3125 -33.3125 22.3125 -35.3125 20.3125 C-34.75694444 15.75694444 -34.75694444 15.75694444 -33.3125 14.3125 C-31.89679877 14.22598389 -30.476905 14.20545096 -29.05859375 14.21484375 C-27.77758789 14.21967773 -27.77758789 14.21967773 -26.47070312 14.22460938 C-25.57287109 14.23298828 -24.67503906 14.24136719 -23.75 14.25 C-22.84830078 14.25451172 -21.94660156 14.25902344 -21.01757812 14.26367188 C-18.78248686 14.27549775 -16.54752563 14.2919778 -14.3125 14.3125 C-14.35117187 13.05308594 -14.38984375 11.79367187 -14.4296875 10.49609375 C-14.53372094 7.10807145 -14.37057932 6.40349093 -12.4375 3.375 C-8.63179851 -0.31876909 -5.0580978 0.06338468 0 0 Z M-6.3125 8.3125 C-6.3125 10.2925 -6.3125 12.2725 -6.3125 14.3125 C-2.0225 14.3125 2.2675 14.3125 6.6875 14.3125 C6.6875 12.3325 6.6875 10.3525 6.6875 8.3125 C2.3975 8.3125 -1.8925 8.3125 -6.3125 8.3125 Z M-21.3125 22.3125 C-21.35375 28.87125 -21.395 35.43 -21.4375 42.1875 C-21.45570801 44.25757324 -21.47391602 46.32764648 -21.49267578 48.46044922 C-21.49851544 50.096026 -21.50361224 51.73160568 -21.5078125 53.3671875 C-21.51804443 54.22062744 -21.52827637 55.07406738 -21.53881836 55.95336914 C-21.53944981 58.07442133 -21.43580885 60.19503507 -21.3125 62.3125 C-19.32283596 64.74536584 -19.32283596 64.74536584 -15.41357422 64.53955078 C-13.73141207 64.53923341 -12.04922981 64.52789396 -10.3671875 64.5078125 C-9.4821756 64.5049826 -8.5971637 64.50215271 -7.68533325 64.49923706 C-4.85258588 64.4880224 -2.02015216 64.4629157 0.8125 64.4375 C2.73046419 64.42747185 4.64843333 64.41834572 6.56640625 64.41015625 C11.27355876 64.38807889 15.98047616 64.35354045 20.6875 64.3125 C22.37981876 60.92786248 21.8074633 57.08842462 21.78515625 53.3671875 C21.78414917 52.58287354 21.78314209 51.79855957 21.78210449 50.99047852 C21.77686611 48.05613751 21.76290487 45.12181731 21.75 42.1875 C21.729375 35.62875 21.70875 29.07 21.6875 22.3125 C7.4975 22.3125 -6.6925 22.3125 -21.3125 22.3125 Z " fill="#70B2BD" transform="translate(35.3125,-0.3125)"/>
<path d="M0 0 C1.875 0.75 1.875 0.75 2.875 1.75 C3.00167764 4.74018161 3.06020838 7.69694108 3.0625 10.6875 C3.07474609 11.52474609 3.08699219 12.36199219 3.09960938 13.22460938 C3.10250977 14.42633789 3.10250977 14.42633789 3.10546875 15.65234375 C3.10957764 16.38960693 3.11368652 17.12687012 3.11791992 17.88647461 C2.875 19.75 2.875 19.75 0.875 21.75 C-1.6875 21.5 -1.6875 21.5 -4.125 20.75 C-5.69755046 17.60489907 -5.35072668 14.26234555 -5.375 10.8125 C-5.395625 10.08353516 -5.41625 9.35457031 -5.4375 8.60351562 C-5.47665629 3.26357712 -5.47665629 3.26357712 -3.7421875 0.73046875 C-2.125 -0.25 -2.125 -0.25 0 0 Z " fill="#79B7C1" transform="translate(47.125,32.25)"/>
<path d="M0 0 C2.5625 0.25 2.5625 0.25 5 1 C6.5720124 4.14402481 6.18446744 7.48947397 6.1875 10.9375 C6.19974609 11.66646484 6.21199219 12.39542969 6.22460938 13.14648438 C6.23512685 16.9713391 6.17095624 18.74356564 4 22 C-0.875 21.125 -0.875 21.125 -2 20 C-2.12667764 17.00981839 -2.18520838 14.05305892 -2.1875 11.0625 C-2.19974609 10.22525391 -2.21199219 9.38800781 -2.22460938 8.52539062 C-2.22654297 7.72423828 -2.22847656 6.92308594 -2.23046875 6.09765625 C-2.23457764 5.36039307 -2.23868652 4.62312988 -2.24291992 3.86352539 C-2 2 -2 2 0 0 Z " fill="#79B7C1" transform="translate(23,32)"/>
</svg>
