<?xml version="1.0" encoding="UTF-8"?>
<svg version="1.1" xmlns="http://www.w3.org/2000/svg" width="192" height="192">
<path d="M0 0 C2.11181641 0.41479492 2.11181641 0.41479492 4 1 C4.98694986 9.81836674 5.28274575 18.62161559 5.50268555 27.484375 C5.56152646 29.83609019 5.62699795 32.18754893 5.69335938 34.5390625 C6.01105248 46.36056591 6.04638215 58.17475972 6 70 C41.59478028 73.24044425 41.59478028 73.24044425 72.4609375 58.2890625 C73.97769926 56.86334438 75.49096064 55.43388933 77 54 C78.99349167 52.3046685 81.01342259 50.64670795 83.03857422 48.98950195 C84.60171242 47.6861435 86.10909983 46.31665849 87.609375 44.94140625 C91.94646581 41.41929165 95.82772556 41.86397533 101.3125 41.875 C102.58738281 41.87242188 103.86226562 41.86984375 105.17578125 41.8671875 C108.88802714 41.99611126 112.3415881 42.40367413 116 43 C116.5625 44.9375 116.5625 44.9375 117 47 C116 48 116 48 113.94628906 48.06591797 C112.61936035 48.02942139 112.61936035 48.02942139 111.265625 47.9921875 C110.29882812 47.97542969 109.33203125 47.95867188 108.3359375 47.94140625 C106.29407932 47.89746753 104.2523765 47.84550727 102.2109375 47.78515625 C94.8507682 47.67777977 91.10414436 48.83027007 85.75 53.9375 C79.04783721 59.96425104 71.40339936 64.884947 64 70 C65.86205078 70.07347656 65.86205078 70.07347656 67.76171875 70.1484375 C69.40366694 70.22349799 71.04559297 70.29904439 72.6875 70.375 C73.50412109 70.4059375 74.32074219 70.436875 75.16210938 70.46875 C79.50126633 70.67955924 83.04283457 71.01738759 87 73 C87.78100427 81.59104702 84.92473533 89.90561322 79.75 96.75 C78.52195894 98.18574357 77.27178853 99.60286065 76 101 C75.40316406 101.69996094 74.80632812 102.39992188 74.19140625 103.12109375 C61.75271482 116.80106831 42.48244154 119.25405314 25 121 C25.60585937 121.47308594 26.21171875 121.94617188 26.8359375 122.43359375 C31.31778029 125.97080198 35.67674637 129.56638302 39.875 133.4375 C44.43820231 137.60421554 49.25670576 141.30564948 54.23828125 144.95703125 C56.87918465 146.9106274 59.44834595 148.9317194 62 151 C61.835 151.598125 61.67 152.19625 61.5 152.8125 C60.76227269 156.04005698 60.97159664 157.9181315 62.0625 161.0625 C64.25686404 168.6314658 62.31881572 175.94459654 58.6640625 182.73046875 C55.2458107 187.39245066 50.41946417 190.19351194 45 192 C39.7312402 192.39764225 36.43358076 191.92427667 32 189 C28.60405073 185.64457518 26.0877767 182.28593267 24 178 C18.23358981 177.94682614 12.4696398 177.93370133 6.703125 177.97900391 C4.98441054 177.99235375 3.265641 178.00043851 1.546875 178.00146484 C-0.63740903 178.01121611 -2.81671048 178.06128633 -5 178.125 C-6.258125 178.14820313 -7.51625 178.17140625 -8.8125 178.1953125 C-12.26041884 178.72105213 -12.26041884 178.72105213 -14.296875 181.9140625 C-14.85890625 182.93242187 -15.4209375 183.95078125 -16 185 C-20.83054475 189.83054475 -26.35319185 191.01215307 -33 191.3125 C-38.4310929 191.11056113 -42.90711353 189.89963369 -46.98828125 186.1953125 C-52.63301368 180.00129969 -54.44904492 175.04182434 -54.3359375 166.671875 C-53.85066779 162.81228803 -52.51633911 160.90951709 -50 158 C-50.66 157.34 -51.32 156.68 -52 156 C-51.84413957 153.14655527 -51.03546349 152.03882012 -49.1015625 149.921875 C-43.83910591 145.30684998 -38.45281683 141.09123005 -32.7421875 137.046875 C-29.03993649 134.2833714 -25.67003376 131.22163674 -22.2890625 128.078125 C-19.93661812 125.94245877 -17.49930969 123.96058922 -15 122 C-17.80653759 121.21179775 -20.35454554 120.85966946 -23.265625 120.7890625 C-24.07386719 120.76070313 -24.88210937 120.73234375 -25.71484375 120.703125 C-27.38911323 120.65152964 -29.06362137 120.60711821 -30.73828125 120.5703125 C-39.14468592 120.25057603 -45.83644297 118.17771967 -51.99145508 112.27148438 C-58.8060153 104.56482723 -61.7343391 93.61064349 -64.8125 84 C-65.20630859 82.79988281 -65.60011719 81.59976563 -66.00585938 80.36328125 C-67.02296234 77.24742209 -68.03532249 74.13248274 -69 71 C-69.22848633 70.30028076 -69.45697266 69.60056152 -69.69238281 68.87963867 C-70.07667655 66.53148194 -69.63922338 65.25869759 -68.77734375 63.05078125 C-68.48939941 62.2928125 -68.20145508 61.53484375 -67.90478516 60.75390625 C-67.58558105 59.94824219 -67.26637695 59.14257812 -66.9375 58.3125 C-64.97345255 53.27017649 -63.03115797 48.27130824 -61.51171875 43.07421875 C-58.14374068 31.75472909 -58.14374068 31.75472909 -55.08203125 29.734375 C-52.9375 29.25 -52.9375 29.25 -50.6484375 28.921875 C-46.54842289 27.49473127 -44.04214752 24.5764562 -41.0625 21.5 C-40.4945874 20.91637695 -39.9266748 20.33275391 -39.34155273 19.73144531 C-36.95787247 17.22805979 -34.92684747 14.8902712 -33 12 C-29.875 11.12109375 -29.875 11.12109375 -26 10.4375 C-25.32445068 10.31020508 -24.64890137 10.18291016 -23.95288086 10.05175781 C-20.99833881 9.49877054 -18.04652004 9.00613247 -15.06640625 8.61328125 C-9.0421473 7.7392468 -5.97929996 5.81206528 -1.7890625 1.36328125 C-1.19867188 0.91339844 -0.60828125 0.46351562 0 0 Z M-2 9 C-2.63292969 9.46019531 -3.26585938 9.92039062 -3.91796875 10.39453125 C-7.96856588 12.50453812 -11.82721473 13.03966479 -16.3125 13.6875 C-17.56643555 13.88182617 -17.56643555 13.88182617 -18.84570312 14.08007812 C-20.89567127 14.39635892 -22.94765901 14.69950147 -25 15 C-25 19.1035423 -22.87010414 21.22614124 -20.5 24.375 C-12.68640282 35.04124629 -6.12951226 46.29646253 0 58 C0.33 58 0.66 58 1 58 C0.90787565 51.34283962 0.80058984 44.68604907 0.68261719 38.02929688 C0.64426729 35.76340318 0.60942517 33.49744735 0.578125 31.23144531 C0.53260473 27.97959133 0.47458924 24.7281674 0.4140625 21.4765625 C0.40251129 20.45881744 0.39096008 19.44107239 0.37905884 18.39248657 C0.35918915 17.45166229 0.33931946 16.51083801 0.31884766 15.54150391 C0.30552399 14.71099518 0.29220032 13.88048645 0.2784729 13.02481079 C0.17664458 10.77386386 0.17664458 10.77386386 -2 9 Z M-34.64453125 21.51953125 C-36.23735738 23.1604427 -37.81500875 24.81513279 -39.39257812 26.47070312 C-42.3840443 29.55180124 -45.15487705 31.9743807 -49 34 C-47.64066995 38.07799016 -45.85772035 38.497866 -42.125 40.5625 C-41.51366211 40.904021 -40.90232422 41.24554199 -40.27246094 41.59741211 C-35.80013061 44.07494994 -31.26504247 46.42758727 -26.72583008 48.77954102 C-25.90880615 49.20291748 -25.09178223 49.62629395 -24.25 50.0625 C-23.43748779 50.48265381 -22.62497559 50.90280762 -21.7878418 51.33569336 C-16.43402628 54.14121721 -11.52711638 57.14979173 -6.71484375 60.8203125 C-5.07227916 62.18892258 -5.07227916 62.18892258 -3 62 C-8.30616356 47.50789737 -18.316884 29.28090838 -30 19 C-32.36743195 18.77007044 -32.36743195 18.77007044 -34.64453125 21.51953125 Z M-54 38 C-55.47974357 42.1039589 -56.95869621 46.20820238 -58.4375 50.3125 C-58.85837891 51.47974609 -59.27925781 52.64699219 -59.71289062 53.84960938 C-60.11572266 54.96787109 -60.51855469 56.08613281 -60.93359375 57.23828125 C-61.30540771 58.26993408 -61.67722168 59.30158691 -62.06030273 60.36450195 C-62.72751046 62.23576915 -63.37176381 64.11529144 -64 66 C-56.36479867 66.1934212 -48.72934711 66.3708712 -41.09350586 66.53710938 C-38.49478716 66.5955842 -35.8961487 66.65774373 -33.29760742 66.72363281 C-29.56704311 66.81759093 -25.83639293 66.89838563 -22.10546875 66.9765625 C-20.93976852 67.00875885 -19.7740683 67.0409552 -18.57304382 67.0741272 C-17.49214981 67.09429901 -16.4112558 67.11447083 -15.29760742 67.13525391 C-13.86864388 67.16856308 -13.86864388 67.16856308 -12.41081238 67.20254517 C-9.73668182 67.17335523 -9.73668182 67.17335523 -7 65 C-17.67420921 58.44092347 -28.38978182 52.08227221 -39.55395508 46.38720703 C-44.53891429 43.83282127 -49.29712465 41.04317747 -54 38 Z M-17 130 C-18.53883226 131.46280818 -20.10205748 132.90034402 -21.6875 134.3125 C-22.48285156 135.04082031 -23.27820313 135.76914063 -24.09765625 136.51953125 C-28.49702361 140.27942126 -33.14749167 143.69018113 -37.8190918 147.1027832 C-39.56155034 148.38100474 -41.28301326 149.68776199 -43 151 C-43 151.33 -43 151.66 -43 152 C-11.31606564 152.12654864 20.32863178 151.93121946 52 151 C50.69922228 147.09766683 48.25948353 145.70142863 45.0625 143.375 C39.85493281 139.49118406 35.00352618 135.38753972 30.23046875 130.97265625 C28.20803937 129.18399279 26.16767197 127.64043126 23.9375 126.125 C21 124 21 124 20 121 C-0.79487972 118.97505786 -0.79487972 118.97505786 -17 130 Z M-48 163 C-50.03195343 167.06390685 -49.56808574 171.93390475 -48.38671875 176.23046875 C-46.38381981 180.93331075 -43.92905168 183.40774744 -39.20703125 185.37890625 C-33.16170434 187.08015754 -27.40522097 186.43904926 -21.6640625 183.96875 C-18.94786105 182.38748719 -18.04750746 180.94611473 -17 178 C-16.24248487 171.50701317 -17.53672324 166.56090811 -21 161 C-24.72907737 157.07968789 -28.15872734 156.65842753 -33.375 156.375 C-39.76377362 156.55043543 -43.67464993 158.31015414 -48 163 Z M-19 157 C-18.66226563 157.56847656 -18.32453125 158.13695312 -17.9765625 158.72265625 C-15.25311261 163.43753048 -13.24133018 167.69613469 -12 173 C-0.29045225 173.13339991 11.31514365 172.76532392 23 172 C23.17015625 171.34773437 23.3403125 170.69546875 23.515625 170.0234375 C23.75796875 169.14945313 24.0003125 168.27546875 24.25 167.375 C24.48203125 166.51648438 24.7140625 165.65796875 24.953125 164.7734375 C26.19612355 161.48041896 27.96891037 158.86198993 30 156 C13.64153329 155.8511363 -2.6569685 156.29546207 -19 157 Z M30.1875 162.75 C28.07072254 166.76073623 27.53045202 170.72353076 28.4375 175.12109375 C29.99378882 179.79880277 32.18761261 182.77413375 36 186 C39.11888678 187.55944339 41.5454145 187.28316275 45 187 C50.25434125 184.82578983 53.24559541 182.30912393 56.05859375 177.3515625 C58.12538503 172.18887226 58.76920631 166.60346751 57.1875 161.25 C56.13684692 158.69874192 56.13684692 158.69874192 53.0625 157.6875 C43.92329616 155.71817365 37.09357002 156.08207032 30.1875 162.75 Z " fill="#699EA6" transform="translate(72,0)"/>
<path d="M0 0 C3.125 0.375 3.125 0.375 6 1 C6 2.98 6 4.96 6 7 C6.66 7 7.32 7 8 7 C8 7.99 8 8.98 8 10 C5.3125 10.75 5.3125 10.75 2 11 C-0.875 9.0625 -0.875 9.0625 -3 7 C-2.25 2.25 -2.25 2.25 0 0 Z " fill="#6FA2AA" transform="translate(36,167)"/>
<path d="M0 0 C1.1446875 0.3403125 1.1446875 0.3403125 2.3125 0.6875 C3.29370464 3.74013664 3.29370464 5.63486336 2.3125 8.6875 C0.0025 8.3575 -2.3075 8.0275 -4.6875 7.6875 C-5.375 5.375 -5.375 5.375 -5.6875 2.6875 C-4.0011022 -0.12316299 -3.27764429 -0.38112143 0 0 Z " fill="#6FA2AA" transform="translate(115.6875,167.3125)"/>
<path d="M0 0 C3.88975419 3.59054233 6.89732195 7.73898882 10 12 C9.01 12 8.02 12 7 12 C5.4296875 10.390625 5.4296875 10.390625 3.875 8.25 C3.35679688 7.55390625 2.83859375 6.8578125 2.3046875 6.140625 C1.03294689 4.05405657 0.44085483 2.38706762 0 0 Z " fill="#C4E0E3" transform="translate(18,99)"/>
</svg>
