<?xml version="1.0" encoding="UTF-8"?>
<svg version="1.1" xmlns="http://www.w3.org/2000/svg" width="160" height="123">
<path d="M0 0 C8.52961786 6.09613155 15.7010908 14.40611567 17.75390625 24.9453125 C19.22066194 37.19155839 16.23349925 46.14712777 9 56 C8.34 56.99 7.68 57.98 7 59 C7.67804688 59.38929687 8.35609375 59.77859375 9.0546875 60.1796875 C22.95652933 68.5361963 33.22416006 79.92142031 37.9375 95.625 C41.27932336 110.39018034 41.27932336 110.39018034 38.6328125 115.7890625 C37 118 37 118 35 119 C31.56009191 119.37390305 29.71902295 119.53029604 26.88671875 117.44140625 C24.47019659 114.31443658 24.1544397 111.42910507 23.6875 107.625 C21.71919816 95.04316439 16.47152184 84.31450191 6.09765625 76.58203125 C-1.42064731 71.50531538 -9.23644222 69.42642374 -18.25 69.5 C-19.07483887 69.50572021 -19.89967773 69.51144043 -20.74951172 69.51733398 C-31.92778118 69.84047454 -42.17249093 73.85144075 -50 82 C-57.3338 91.58264102 -60.14799622 99.93752337 -61.27734375 111.828125 C-62.10560537 115.46352194 -63.06323232 116.7622047 -66 119 C-68.9375 119.5625 -68.9375 119.5625 -72 119 C-74.875 117 -74.875 117 -77 114 C-78.87415463 101.11518695 -73.1593752 87.4926599 -65.99609375 77.08984375 C-60.83446348 70.37695429 -55.00535282 65.67758991 -48 61 C-46.6599405 60.00903163 -45.32401732 59.01230229 -44 58 C-44.47050781 57.50371094 -44.94101562 57.00742187 -45.42578125 56.49609375 C-53.30618974 47.89780126 -55.42281272 40.02894847 -55.265625 28.41015625 C-54.45359953 17.98518221 -49.58687772 10.94247945 -42 4 C-30.14189341 -5.42017349 -13.48848627 -7.73451067 0 0 Z M-35.875 19 C-40.01232585 24.84093062 -40.98599918 29.9131309 -40 37 C-37.69219115 44.10887547 -34.4443895 48.30044307 -28 52 C-22.26556587 53.91147804 -15.25810392 54.20171718 -9.54296875 52.09375 C-4.20737567 48.91075757 -0.28177423 44.80769594 2.3125 39.125 C3.99468434 31.47870753 3.19182081 25.63092123 -1 19 C-5.15691674 14.38010912 -9.57811821 11.44838451 -15.83203125 10.62890625 C-24.70123183 10.43129628 -29.95354319 12.37483383 -35.875 19 Z " fill="#659BA3" transform="translate(77,4)"/>
<path d="M0 0 C10.25811573 2.83896192 17.70650592 8.02034231 23.375 17 C28.41680733 26.15197635 29.73815673 35.9617496 27.20703125 46.2109375 C25.93076906 49.85879803 24.73863355 53.04453608 22.36328125 56.1171875 C20.7067641 58.01756033 20.7067641 58.01756033 21 61 C22.72912333 62.60502616 22.72912333 62.60502616 25 64.125 C38.30422797 74.08750666 46.32674766 87.96910848 49.25 104.25 C50.83126809 115.26189399 50.83126809 115.26189399 48.625 119.875 C47 122 47 122 45 123 C41.53350904 123.3767925 39.71068441 123.52749154 36.86328125 121.4140625 C34.42265834 118.25199759 34.36593783 116.02381848 34.0625 112.0625 C32.5835618 97.71942475 26.52253822 84.96642174 15.32421875 75.66015625 C11.57642275 72.98315911 7.5851528 70.77018405 3.5390625 68.578125 C1 67 1 67 -1 64 C-1.4375 61.125 -1.4375 61.125 -1 58 C1.1875 55.4375 1.1875 55.4375 4 53 C9.38513415 48.12773577 12.07562146 43.50516233 12.5 36.1875 C12.26549178 29.20555086 9.47561137 23.41372108 4.5 18.5625 C0.10972944 16.60255779 -4.24505714 15.79249048 -8.9765625 15.00390625 C-12.7110338 13.76390738 -13.95918982 12.3181877 -16 9 C-15.93692702 5.84635119 -15.66931773 3.90529514 -13.78125 1.3515625 C-9.91087503 -1.58516938 -4.57751857 -0.56346946 0 0 Z " fill="#659BA3" transform="translate(110,0)"/>
</svg>
